<?xml version="1.0" standalone="no"?> <!DOCTYPE svg PUBLIC "-//W3C//DTD SVG 20010904//EN" "http://www.w3.org/TR/2001/REC-SVG-20010904/DTD/svg10.dtd"> <svg version="1.0" xmlns="http://www.w3.org/2000/svg" width="360.000000pt" height="549.000000pt" viewBox="0 0 360.000000 549.000000" preserveAspectRatio="xMidYMid meet"> <g transform="translate(0.000000,549.000000) scale(0.100000,-0.100000)" fill="#000000" stroke="none"> <path d="M146 5463 c-5 -20 -16 -32 -36 -40 -26 -10 -30 -16 -30 -52 0 -22 -4 -42 -10 -46 -22 -13 -31 -93 -37 -310 -4 -154 -2 -248 5 -282 19 -86 16 -281 -3 -328 -14 -31 -16 -56 -11 -109 4 -38 12 -76 19 -84 13 -17 13 -1376 0 -2867 -8 -778 -8 -898 -4 -1212 l1 -133 63 1 c51 1 57 2 33 9 -33 10 -46 25 -46 55 0 15 3 16 12 7 21 -21 38 -14 38 16 0 15 -5 33 -10 38 -8 8 -7 19 1 37 14 31 4 77 -16 77 -8 0 -15 7 -15 15 0 8 7 15 16 15 10 0 14 7 12 23 -2 12 -9 21 -16 20 -18 -4 -15 44 3 51 18 6 20 37 3 54 -9 9 -9 18 1 38 9 20 9 30 0 40 -9 11 -8 18 5 32 18 21 21 48 5 57 -6 4 -7 19 -4 35 4 16 2 31 -5 35 -5 3 -7 12 -3 18 8 12 16 99 15 152 -1 17 -3 63 -4 103 -2 41 -1 99 3 130 3 32 2 62 -2 68 -10 12 -6 235 4 250 3 6 2 16 -3 24 -5 7 -4 21 3 31 8 13 8 21 -2 33 -7 8 -9 21 -5 27 4 7 5 111 3 233 -2 122 -2 268 -2 326 4 247 4 1120 1 1127 -6 12 -2 68 5 80 10 16 7 182 -3 188 -6 4 -5 14 2 25 9 14 9 22 -1 33 -6 9 -8 18 -3 21 5 3 10 49 11 103 1 54 2 105 3 113 0 8 -3 101 -7 205 -5 105 -9 327 -9 495 -1 168 -5 311 -9 318 -5 7 -4 27 2 45 6 17 10 57 9 87 -1 30 1 87 4 125 5 55 3 76 -10 98 -12 20 -14 30 -5 35 6 4 14 51 18 110 8 105 19 126 43 80 14 -27 20 -153 9 -185 -6 -18 -4 -22 15 -25 19 -3 23 -10 26 -48 3 -33 -1 -47 -14 -57 -13 -10 -15 -21 -9 -60 4 -26 13 -55 20 -65 17 -25 9 -151 -12 -201 -15 -35 -15 -40 0 -67 12 -20 17 -53 18 -117 2 -177 30 -177 35 0 2 63 8 115 15 123 6 8 8 21 4 31 -5 10 -9 57 -11 104 -2 81 -14 125 -36 140 -6 4 -5 15 3 27 10 17 11 24 2 33 -9 9 -6 22 14 56 17 29 22 47 16 56 -13 16 -16 154 -3 162 5 3 10 15 10 25 0 26 21 36 35 17 18 -26 27 -20 20 11 -6 28 -5 28 27 24 36 -5 68 -28 68 -48 0 -10 6 -11 27 -3 34 13 53 5 53 -21 0 -13 -7 -20 -19 -20 -12 0 -21 -8 -23 -21 -2 -12 -13 -28 -25 -36 -19 -13 -23 -12 -32 6 -8 15 -7 23 4 35 25 25 17 31 -35 28 -39 -3 -51 -8 -56 -24 -8 -26 13 -49 26 -28 5 8 12 11 16 7 4 -4 0 -15 -9 -25 -10 -10 -17 -24 -17 -30 0 -17 21 -15 35 5 14 19 45 11 45 -11 0 -9 -9 -20 -20 -26 -20 -10 -27 -44 -12 -53 4 -3 20 -3 35 0 27 5 27 6 10 25 -15 17 -15 21 -3 29 18 11 46 7 43 -7 -1 -5 -5 -17 -8 -26 -5 -14 -2 -18 14 -18 12 0 21 -6 21 -15 0 -8 6 -15 13 -15 17 0 40 -47 28 -55 -15 -9 0 -129 17 -142 19 -15 42 0 42 28 0 12 5 16 15 13 35 -14 -13 -94 -56 -94 -14 0 -19 -7 -19 -26 0 -33 -17 -64 -35 -64 -10 0 -15 10 -15 29 0 24 -5 30 -30 35 -36 7 -40 33 -6 46 27 10 41 57 23 79 -9 10 -7 16 6 26 9 7 17 20 17 29 0 20 2 20 -45 -4 -22 -11 -45 -20 -52 -20 -19 0 -26 -19 -13 -35 15 -18 52 -19 68 -3 20 20 15 -16 -5 -41 -15 -17 -25 -20 -57 -14 -26 4 -40 12 -44 25 -6 26 -20 22 -28 -7 -10 -40 -1 -50 39 -47 39 4 55 -13 43 -44 -6 -16 -8 -16 -25 0 -20 18 -31 12 -31 -16 0 -12 7 -18 22 -18 12 0 35 -15 52 -34 17 -19 40 -36 50 -38 22 -4 34 -28 14 -28 -19 0 -48 -36 -48 -59 0 -10 7 -24 15 -31 18 -15 11 -30 -16 -30 -27 0 -24 -25 6 -38 14 -6 24 -17 23 -24 -2 -7 7 -14 20 -16 15 -2 22 2 22 12 0 9 -7 16 -15 16 -9 0 -15 9 -15 25 0 20 5 25 25 25 25 0 26 -1 19 -50 -6 -44 -4 -54 15 -71 24 -22 26 -41 9 -69 -17 -27 -2 -37 22 -15 12 11 20 31 20 52 0 25 4 33 18 33 10 0 32 13 49 29 27 24 31 34 29 72 -3 49 -25 61 -36 19 -10 -36 -70 -121 -81 -115 -5 4 -9 19 -9 35 0 22 6 30 31 39 21 7 30 16 27 28 -3 15 -12 17 -46 15 -26 -2 -42 1 -42 7 0 14 -37 51 -50 51 -5 0 -10 7 -10 15 0 20 20 19 37 -2 13 -16 14 -16 10 10 -4 22 -1 27 11 22 8 -3 23 3 34 14 23 25 23 30 -1 24 -31 -8 -34 16 -7 52 14 18 26 43 26 54 0 12 7 21 15 21 9 0 18 7 21 15 8 19 44 20 44 1 0 -14 -36 -64 -59 -82 -14 -11 -9 -44 7 -44 22 0 72 58 72 84 0 15 7 29 15 32 8 4 15 15 15 25 0 23 18 24 48 3 l22 -15 -23 -39 c-12 -22 -29 -40 -37 -40 -22 0 -40 -20 -40 -43 0 -27 52 -19 65 10 7 16 15 21 27 17 13 -4 18 0 18 15 0 11 5 23 10 26 6 3 10 21 11 38 1 45 6 24 14 -55 5 -50 10 -68 21 -68 8 0 17 -7 20 -15 9 -22 58 -18 79 5 17 19 17 22 3 36 -15 15 -17 14 -27 -5 -7 -11 -21 -21 -32 -21 -18 0 -20 4 -15 25 4 14 2 25 -4 25 -5 0 -10 22 -10 50 0 45 2 50 26 56 14 4 36 1 49 -6 30 -16 48 -4 42 26 -3 18 0 24 15 24 28 0 34 28 13 65 -16 32 -16 35 1 67 11 18 20 35 21 37 1 2 20 -6 41 -17 53 -27 119 -20 134 14 6 13 17 24 24 24 6 0 26 14 44 30 18 17 42 30 55 30 12 0 30 9 40 20 11 12 36 30 57 42 47 27 62 64 44 115 -16 46 -64 66 -151 62 -135 -5 -199 -1 -211 15 -6 9 -25 16 -43 16 -35 0 -36 -2 -19 -30 10 -16 10 -23 -4 -36 -16 -16 -17 -15 -24 9 -9 36 -24 34 -24 -3 0 -17 -6 -33 -14 -36 -7 -3 -19 -23 -26 -45 -7 -21 -18 -39 -24 -39 -7 0 -19 -8 -28 -17 -9 -10 -24 -24 -33 -31 -21 -18 -14 -36 15 -40 15 -3 29 4 40 18 l17 23 7 -29 c6 -24 3 -33 -23 -56 -17 -15 -31 -30 -31 -33 0 -13 -36 -45 -52 -45 -27 0 -3 58 25 62 29 4 28 22 0 26 -16 2 -23 -2 -23 -12 0 -9 -8 -16 -19 -16 -11 0 -23 -12 -31 -30 -13 -32 -37 -38 -84 -20 -35 13 -36 50 -2 50 33 0 44 20 21 37 -25 17 -27 17 -54 -8 -21 -19 -22 -27 -16 -76 9 -75 25 -88 107 -88 69 0 108 18 108 48 0 8 8 21 19 31 17 16 19 15 42 -19 13 -19 32 -35 42 -35 13 0 18 -6 15 -22 -4 -29 -44 -37 -51 -11 -4 17 -5 17 -6 0 -1 -15 -6 -17 -32 -12 -25 6 -31 4 -36 -14 -5 -20 -12 -21 -94 -20 -49 1 -89 5 -89 10 0 11 -48 59 -59 59 -26 0 -59 119 -33 120 36 2 95 120 59 120 -15 0 -47 60 -47 89 0 14 -6 17 -32 14 l-33 -4 28 25 c33 30 40 31 57 11 7 -8 21 -15 32 -15 10 0 21 7 24 15 4 10 20 15 48 15 52 0 59 -6 40 -35 -20 -31 -55 -44 -103 -38 -22 3 -41 3 -41 0 0 -4 14 -27 32 -52 29 -41 35 -45 75 -45 24 0 43 -4 43 -9 0 -11 44 -61 54 -61 3 0 6 9 6 20 0 11 -4 20 -10 20 -20 0 -9 27 15 38 23 10 24 15 18 57 -6 44 -5 45 22 45 38 0 77 38 63 63 -10 20 3 37 30 37 6 0 12 7 12 15 0 24 -46 18 -77 -11 -22 -21 -25 -27 -13 -34 8 -6 18 -10 23 -10 4 0 7 -6 7 -14 0 -8 -15 -16 -37 -19 -21 -3 -47 -8 -58 -12 -16 -7 -18 -6 -7 6 6 7 12 21 12 30 0 9 9 19 21 22 15 4 20 12 17 29 -4 30 -32 30 -36 1 -3 -19 -10 -23 -42 -23 -22 0 -51 5 -65 12 -19 9 -28 9 -37 0 -13 -13 -66 -16 -92 -6 -26 10 -19 41 10 48 17 5 23 11 17 17 -6 6 -26 2 -57 -12 -46 -20 -47 -21 -31 -39 19 -21 14 -50 -8 -50 -23 0 -87 29 -87 40 0 6 -11 10 -25 10 -14 0 -25 4 -25 9 0 18 -42 23 -68 10 -36 -19 -64 -48 -57 -59 9 -14 -6 -61 -17 -54 -6 4 -8 24 -5 46 6 41 -17 103 -34 92 -16 -10 -59 5 -59 21 0 22 38 28 65 11 16 -10 34 -14 50 -10 15 4 25 2 25 -5 0 -6 7 -11 15 -11 8 0 15 6 15 13 0 8 8 22 19 31 17 16 109 17 1292 17 701 0 1284 2 1297 5 12 4 22 13 22 20 0 12 -201 14 -1308 14 l-1307 0 -10 -21 c-9 -18 -19 -21 -80 -23 -64 -1 -70 1 -81 23 l-12 23 -6 -29z m1196 -163 c15 0 28 -4 28 -10 0 -5 14 -10 30 -10 36 0 45 -16 36 -65 -7 -37 -36 -50 -36 -16 0 11 -7 26 -15 35 -8 8 -15 19 -15 25 0 6 -4 11 -9 11 -4 0 -8 -24 -7 -54 0 -63 -21 -96 -64 -96 -14 0 -30 -4 -36 -9 -5 -5 -22 -11 -39 -13 -30 -3 -35 -14 -20 -50 6 -16 1 -18 -48 -18 -31 0 -59 5 -62 10 -5 8 -11 8 -20 0 -17 -14 -27 13 -19 54 5 30 8 31 59 34 30 1 56 -2 60 -8 11 -18 21 -11 38 25 9 19 21 35 27 35 16 0 12 22 -7 36 -10 7 -27 14 -37 14 -19 0 -19 0 -1 -13 19 -15 13 -37 -10 -37 -7 0 -17 -9 -20 -21 -5 -14 -10 -18 -17 -11 -6 6 -5 17 3 30 15 25 6 40 -14 24 -11 -9 -16 -6 -25 13 -11 24 -10 25 18 25 17 0 30 5 30 11 0 6 -16 9 -42 7 -63 -5 -63 33 0 45 25 5 36 2 49 -13 10 -11 25 -20 35 -20 9 0 20 -5 23 -11 4 -5 19 -9 33 -7 25 3 27 0 30 -39 2 -26 -1 -43 -7 -43 -6 0 -11 -4 -11 -10 0 -16 37 -11 44 6 15 38 3 94 -19 94 -22 0 -25 15 -8 39 11 16 18 20 26 12 6 -6 24 -11 39 -11z m-294 -80 c7 -18 7 -32 1 -35 -5 -4 -9 -14 -9 -24 0 -10 -6 -24 -14 -31 -8 -6 -16 -28 -18 -48 -4 -47 -21 -44 -29 5 -3 21 -9 48 -13 60 -4 12 -2 24 4 28 5 3 10 13 10 22 0 20 29 53 46 53 6 0 17 -13 22 -30z m-466 -27 c10 -9 18 -22 18 -29 0 -7 5 -14 12 -16 7 -3 8 -9 3 -18 -6 -10 -11 -9 -22 5 -10 15 -16 16 -26 6 -9 -10 -8 -14 6 -22 26 -15 22 -56 -7 -63 -25 -6 -56 1 -56 13 0 4 5 12 11 18 13 13 4 33 -17 33 -9 0 -14 11 -14 30 0 20 5 30 15 30 9 0 18 7 21 15 8 20 33 19 56 -2z m239 -6 c-13 -13 -26 -3 -16 12 3 6 11 8 17 5 6 -4 6 -10 -1 -17z m279 -22 c0 -8 -7 -15 -15 -15 -8 0 -15 7 -15 15 0 8 7 15 15 15 8 0 15 -7 15 -15z m-300 -9 c0 -21 -21 -31 -31 -15 -14 22 -11 29 11 29 11 0 20 -6 20 -14z m188 -154 c3 -27 0 -32 -17 -32 -26 0 -41 47 -20 61 22 14 34 5 37 -29z m-888 6 c0 -16 -3 -19 -11 -11 -6 6 -8 16 -5 22 11 17 16 13 16 -11z m720 -68 c0 -11 -4 -20 -10 -20 -5 0 -10 9 -10 20 0 11 5 20 10 20 6 0 10 -9 10 -20z"/> <path d="M2990 5475 c0 -11 12 -15 53 -16 28 -1 56 0 62 1 5 1 20 2 32 3 12 1 23 7 23 12 0 6 -37 11 -85 13 -71 2 -85 0 -85 -13z"/> <path d="M3195 5480 c-12 -20 32 -25 200 -25 154 0 170 2 173 18 3 16 -11 17 -182 17 -113 0 -187 -4 -191 -10z"/> <path d="M2843 5412 c-75 -3 -104 -22 -34 -22 28 0 49 -8 71 -26 32 -27 53 -26 30 1 -7 8 -11 15 -9 16 76 10 129 -3 129 -30 0 -18 -31 -33 -53 -27 -17 4 -30 0 -42 -14 -10 -11 -26 -20 -37 -20 -10 0 -18 -4 -18 -9 0 -5 -9 -11 -21 -14 -22 -6 -18 -27 5 -27 7 0 18 -11 25 -24 17 -31 0 -66 -33 -66 -28 0 -62 36 -58 61 2 10 -2 19 -7 19 -6 0 -11 -7 -11 -15 0 -8 -5 -15 -10 -15 -6 0 -13 7 -16 15 -4 8 -12 15 -19 15 -23 0 -28 20 -11 39 22 24 20 31 -8 31 -26 0 -52 -32 -58 -71 -2 -17 -9 -24 -24 -24 -11 0 -27 -5 -35 -12 -12 -10 -20 -6 -43 23 -33 41 -29 69 9 60 18 -5 27 -1 35 14 8 15 17 18 40 14 26 -6 31 -3 40 21 12 32 13 30 -17 39 -17 6 -23 3 -23 -8 0 -22 -32 -36 -83 -36 -31 0 -47 -5 -51 -15 -3 -8 -17 -15 -31 -15 -14 0 -25 -4 -25 -9 0 -5 -9 -13 -20 -16 -15 -5 -19 -12 -14 -31 7 -28 -10 -32 -36 -9 -10 9 -24 13 -33 9 -26 -10 10 -53 46 -54 31 0 37 -23 10 -38 -15 -9 -14 -10 3 -16 10 -3 31 -2 47 2 l27 7 -25 27 c-14 15 -25 30 -25 32 0 15 46 56 62 56 15 0 18 -8 18 -50 0 -52 13 -64 36 -33 14 20 19 18 28 -14 5 -17 3 -23 -8 -23 -8 0 -27 -11 -43 -24 -16 -14 -45 -26 -64 -28 -26 -2 -35 -8 -37 -25 -4 -26 10 -30 28 -8 20 24 67 19 85 -9 9 -13 27 -27 41 -30 13 -4 24 -13 24 -21 0 -20 26 -19 34 0 3 8 14 15 24 15 10 0 24 6 30 12 10 10 17 10 32 0 18 -11 20 -10 20 12 0 15 7 26 20 29 11 3 20 14 20 25 0 11 -9 22 -20 25 -12 3 -20 14 -20 26 0 26 44 30 58 5 5 -10 22 -17 38 -18 19 -1 29 -6 29 -16 0 -9 -8 -14 -21 -13 -23 2 -51 -41 -34 -52 6 -4 10 -28 10 -56 0 -42 3 -49 20 -49 22 0 42 -30 32 -47 -11 -17 -62 -28 -62 -13 0 6 -4 8 -10 5 -6 -4 -5 -13 2 -25 16 -25 3 -38 -22 -22 -27 17 -30 15 -30 -13 0 -18 5 -25 20 -25 10 0 28 -10 40 -22 21 -23 29 -7 11 21 -14 21 28 62 50 51 12 -7 19 -3 27 14 12 28 91 59 113 45 8 -5 25 -9 39 -9 21 0 27 7 38 40 6 22 12 60 12 85 0 33 4 45 15 45 9 0 15 9 15 21 0 19 -2 20 -16 8 -9 -7 -31 -12 -49 -10 -25 2 -36 -3 -44 -17 -12 -23 -5 -32 26 -32 28 0 29 -14 4 -41 -13 -15 -29 -19 -52 -17 -29 2 -35 7 -37 31 -5 42 -32 35 -32 -9 0 -34 -2 -36 -27 -31 -18 3 -32 -1 -41 -11 -11 -15 -12 -12 -7 18 8 50 8 53 4 70 -3 9 8 18 27 25 27 9 30 13 20 28 -9 15 -7 21 8 33 11 8 27 14 35 13 11 0 12 -2 4 -6 -15 -6 -17 -43 -3 -43 5 0 15 9 22 20 11 16 24 20 73 20 34 0 66 -5 73 -12 19 -19 25 -2 15 41 l-10 39 29 -9 c19 -5 36 -4 47 3 14 8 24 6 45 -7 29 -19 29 -15 9 -107 -4 -23 -2 -28 15 -28 12 0 22 9 25 21 8 32 25 14 24 -25 -1 -40 -38 -66 -63 -45 -19 15 -28 -11 -25 -73 1 -29 21 -40 21 -13 0 23 37 55 64 55 14 0 32 -12 46 -30 13 -16 29 -30 35 -30 7 0 15 -9 18 -21 3 -12 10 -18 16 -14 22 13 10 41 -34 79 -49 42 -57 72 -27 99 10 10 34 17 53 17 l34 0 -28 28 c-26 25 -29 26 -41 10 -14 -19 -36 -24 -36 -9 0 5 -9 13 -20 16 -22 7 -25 22 -10 45 7 12 12 12 29 -4 19 -17 20 -17 31 3 6 11 24 28 40 36 31 16 39 39 17 48 -7 3 -35 3 -61 0 -42 -5 -48 -9 -53 -35 -8 -39 -37 -34 -41 7 -2 21 -15 39 -43 59 -22 17 -39 38 -39 49 0 14 -4 17 -17 12 -38 -17 -78 -15 -102 3 -42 33 -22 48 60 46 41 0 84 -4 96 -8 28 -9 70 11 54 27 -10 10 -285 16 -448 9z m279 -132 c30 -31 48 -38 48 -20 0 6 7 10 15 10 17 0 18 -5 6 -29 -8 -14 -22 -17 -83 -15 -92 2 -85 0 -92 29 -7 29 -13 30 -40 10 -14 -11 -17 -22 -13 -50 5 -30 3 -35 -14 -35 -15 0 -19 7 -19 30 0 22 -6 33 -22 40 -20 8 -19 9 13 9 29 1 38 6 42 22 4 16 11 20 26 16 12 -3 24 -1 27 4 3 5 21 9 40 9 26 0 44 -8 66 -30z m-405 -94 c-4 -9 -11 -16 -17 -16 -17 0 -24 31 -9 41 18 11 34 -5 26 -25z m-49 -19 c2 -11 -3 -17 -17 -17 -32 0 -35 -19 -4 -31 22 -8 30 -7 40 7 7 9 19 14 28 11 22 -9 19 -54 -5 -67 -11 -6 -20 -20 -20 -32 0 -16 -4 -19 -22 -14 -13 3 -38 6 -55 6 -33 0 -33 0 -33 49 0 28 5 53 10 56 6 3 10 15 10 25 0 31 62 38 68 7z m342 3 c0 -12 -28 -25 -36 -17 -9 9 6 27 22 27 8 0 14 -5 14 -10z m-52 -244 c3 -12 -1 -17 -10 -14 -7 3 -15 13 -16 22 -3 12 1 17 10 14 7 -3 15 -13 16 -22z"/> <path d="M674 5399 c-3 -6 0 -15 7 -20 22 -14 29 -11 29 11 0 21 -24 27 -36 9z"/> <path d="M945 5400 c-4 -6 8 -10 30 -10 22 0 34 4 30 10 -3 6 -17 10 -30 10 -13 0 -27 -4 -30 -10z"/> <path d="M1143 5403 c-13 -2 -23 -9 -23 -14 0 -15 33 -24 38 -11 2 7 10 12 18 12 9 0 12 5 9 10 -3 6 -9 9 -13 9 -4 -1 -17 -4 -29 -6z"/> <path d="M1216 5402 c-11 -18 26 -25 134 -28 58 -2 114 -4 125 -6 13 -2 20 3 20 12 0 12 -17 15 -85 16 -47 1 -108 5 -136 9 -32 5 -54 4 -58 -3z"/> <path d="M2110 5400 c0 -9 14 -12 90 -15 14 -1 31 -5 37 -8 18 -11 63 3 63 19 0 11 -21 14 -95 14 -57 0 -95 -4 -95 -10z"/> <path d="M2438 5395 c-21 -8 -38 -10 -38 -4 0 13 -67 11 -76 -2 -9 -15 16 -30 39 -23 9 3 17 2 17 -3 0 -4 4 -15 10 -23 7 -12 12 -12 28 4 19 16 23 16 50 2 29 -15 31 -15 37 4 4 14 15 20 36 20 16 0 29 5 29 10 0 6 -13 10 -29 10 -17 0 -33 5 -36 10 -8 13 -21 12 -67 -5z"/> <path d="M2650 5399 c0 -5 4 -7 10 -4 5 3 23 -2 39 -11 25 -15 32 -16 46 -4 16 13 16 15 -2 21 -28 12 -93 10 -93 -2z"/> <path d="M3367 5402 c-20 -2 -27 -8 -23 -18 7 -18 -28 -49 -56 -49 -28 0 -34 -21 -8 -28 11 -3 20 -13 21 -24 0 -15 2 -14 9 5 6 15 18 22 36 22 23 0 25 3 20 25 -5 21 -2 27 20 36 37 13 59 8 59 -16 0 -28 33 -31 57 -6 31 34 20 55 -30 59 -25 2 -42 -1 -42 -8 0 -7 -6 -8 -17 -2 -10 4 -31 6 -46 4z"/> <path d="M1578 5393 c12 -2 30 -2 40 0 9 3 -1 5 -23 4 -22 0 -30 -2 -17 -4z"/> <path d="M1675 5361 c-20 -4 -31 -14 -35 -30 -6 -28 -30 -41 -30 -17 0 9 -4 16 -10 16 -5 0 -10 -7 -10 -15 0 -8 5 -15 10 -15 6 0 10 -7 10 -15 0 -18 9 -19 44 -5 16 6 24 15 20 24 -3 8 3 19 14 25 19 10 39 42 24 40 -4 -1 -20 -4 -37 -8z"/> <path d="M1874 5351 c9 -10 16 -23 16 -29 0 -7 7 -12 15 -12 16 0 65 -46 65 -62 0 -6 10 -8 24 -4 16 4 26 1 30 -9 7 -20 26 -19 26 0 0 31 -29 62 -54 58 -20 -4 -25 0 -31 26 -7 31 -25 42 -78 46 -26 3 -27 1 -13 -14z"/> <path d="M2190 5355 c0 -8 5 -15 10 -15 6 0 10 -11 10 -25 0 -14 -4 -25 -10 -25 -6 0 -5 -10 2 -25 14 -31 24 -32 31 -4 5 19 10 20 46 14 33 -5 42 -3 47 9 9 24 29 19 42 -10 7 -14 17 -22 22 -19 17 10 11 37 -9 42 -11 3 -22 11 -25 18 -3 10 -13 10 -44 2 -48 -13 -69 -5 -82 28 -10 27 -40 35 -40 10z"/> <path d="M2750 5355 c0 -8 7 -15 15 -15 8 0 15 -6 15 -12 0 -7 9 -24 19 -38 l20 -25 23 26 24 26 -20 26 c-16 20 -25 24 -38 16 -12 -7 -24 -6 -38 1 -16 9 -20 8 -20 -5z"/> <path d="M1790 5341 c-17 -33 -12 -42 22 -39 23 2 34 9 36 22 7 35 -41 49 -58 17z"/> <path d="M2021 5343 c23 -31 71 -73 84 -73 18 0 26 -25 12 -39 -9 -9 -8 -11 6 -5 13 5 20 1 24 -15 3 -11 9 -21 13 -21 4 0 11 -11 14 -25 8 -31 32 -33 42 -3 5 16 1 27 -15 39 -11 9 -21 24 -21 33 0 17 -45 66 -62 66 -6 0 -26 14 -45 30 -38 34 -75 43 -52 13z"/> <path d="M1510 5330 c0 -11 -4 -20 -10 -20 -28 0 10 -49 85 -108 6 -5 19 0 30 10 17 17 17 20 3 34 -12 13 -20 14 -37 5 -14 -8 -21 -8 -21 -1 0 5 7 10 15 10 24 0 17 28 -7 32 -17 2 -24 11 -26 31 -4 31 -32 38 -32 7z"/> <path d="M3518 5336 c-20 -15 -24 -41 -7 -51 5 -4 15 -18 20 -32 8 -21 12 -23 24 -13 8 7 15 21 15 31 0 11 7 19 15 19 8 0 15 7 15 15 0 8 -6 15 -14 15 -7 0 -19 7 -26 15 -15 18 -20 18 -42 1z"/> <path d="M2150 5314 c0 -9 5 -14 12 -12 18 6 21 28 4 28 -9 0 -16 -7 -16 -16z"/> <path d="M1700 5288 c0 -18 44 -43 59 -34 15 10 14 36 -1 36 -7 0 -23 3 -35 6 -16 5 -23 2 -23 -8z"/> <path d="M3450 5279 c0 -11 5 -17 10 -14 6 3 10 13 10 21 0 8 -4 14 -10 14 -5 0 -10 -9 -10 -21z"/> <path d="M2608 5248 c9 -9 15 -9 24 0 9 9 7 12 -12 12 -19 0 -21 -3 -12 -12z"/> <path d="M1666 5216 c-9 -14 -16 -30 -16 -36 0 -5 -7 -10 -15 -10 -8 0 -15 -4 -15 -10 0 -16 12 -12 55 18 22 16 40 34 40 42 0 25 -31 22 -49 -4z"/> <path d="M2240 5221 c0 -5 7 -11 15 -15 8 -3 15 -10 15 -16 0 -5 -7 -10 -15 -10 -8 0 -15 -6 -15 -13 0 -25 12 -27 38 -7 29 24 42 25 42 6 0 -15 24 -28 34 -19 13 13 5 33 -13 33 -10 0 -30 11 -45 25 -27 25 -56 33 -56 16z"/> <path d="M2060 5181 c0 -12 6 -21 16 -21 9 0 14 7 12 17 -5 25 -28 28 -28 4z"/> <path d="M1491 5176 c-15 -18 5 -33 46 -34 33 -1 52 14 37 28 -18 15 -72 19 -83 6z"/> <path d="M3506 5154 c-3 -9 -6 -27 -6 -40 0 -20 5 -24 30 -24 17 0 30 4 30 9 0 5 3 16 6 25 4 10 -4 20 -24 30 -27 14 -31 14 -36 0z"/> <path d="M297 5143 c-13 -13 -7 -53 8 -53 8 0 15 8 15 18 0 22 -14 44 -23 35z"/> <path d="M3176 5131 c-8 -13 18 -42 30 -33 6 4 4 13 -8 24 -9 10 -20 14 -22 9z"/> <path d="M3164 5056 c-13 -10 -17 -27 -15 -79 1 -59 0 -67 -17 -67 -10 0 -25 -12 -32 -26 -20 -37 -47 -47 -111 -45 -50 2 -58 -1 -64 -18 -10 -31 1 -40 44 -34 23 3 41 1 45 -6 4 -6 20 -11 36 -11 37 0 47 -16 25 -40 -11 -12 -15 -26 -11 -37 6 -14 5 -16 -5 -5 -7 6 -25 12 -39 12 -19 0 -28 7 -37 31 -13 34 -36 35 -41 2 -2 -12 12 -35 38 -61 42 -44 50 -62 25 -62 -8 0 -15 -7 -15 -15 0 -19 26 -20 37 -1 4 7 18 18 31 25 12 6 22 21 22 31 0 24 25 27 38 5 4 -9 25 -18 45 -22 30 -4 37 -3 37 11 0 9 -4 16 -9 16 -13 0 -91 71 -91 84 0 6 14 19 30 28 17 9 30 24 30 33 0 17 -16 20 -25 5 -11 -18 -45 -11 -45 8 0 21 29 52 48 52 7 0 12 9 12 19 0 10 7 21 15 25 11 4 15 21 15 61 l0 57 31 -7 c26 -6 30 -4 27 11 -4 23 -52 36 -74 20z"/> <path d="M407 5005 c-40 -39 -51 -42 -73 -20 -40 39 -62 -11 -25 -56 l18 -22 29 20 c16 12 37 30 48 41 13 15 26 20 45 16 29 -6 62 20 45 35 -26 25 -51 21 -87 -14z"/> <path d="M3450 5014 c0 -21 3 -25 18 -19 9 4 25 10 35 12 9 3 17 12 17 20 0 13 -3 13 -15 3 -12 -10 -19 -10 -27 -2 -19 19 -28 14 -28 -14z"/> <path d="M2487 5014 c-3 -3 -2 -17 3 -30 5 -13 7 -37 4 -53 -7 -32 25 -79 45 -66 19 11 12 33 -11 37 -15 2 -23 10 -23 23 0 17 6 20 45 17 24 -2 48 -8 52 -15 14 -22 8 -46 -13 -52 -14 -5 -18 -10 -11 -17 6 -6 17 -6 31 1 25 14 28 53 6 75 -8 8 -15 19 -15 25 0 6 -7 11 -15 11 -7 0 -18 7 -23 16 -6 11 -11 13 -16 5 -13 -20 -38 -13 -31 9 6 19 -13 29 -28 14z"/> <path d="M3531 5001 c-16 -11 -2 -43 18 -39 9 2 17 10 19 19 3 19 -19 31 -37 20z"/> <path d="M2688 4973 c-54 -4 -71 -14 -49 -27 5 -4 29 -7 53 -7 23 -1 50 -8 60 -16 11 -10 18 -11 23 -3 10 16 -3 60 -18 58 -6 -1 -38 -3 -69 -5z"/> <path d="M2344 4956 c-25 -19 -8 -37 37 -39 32 -2 34 -4 37 -41 4 -43 27 -86 47 -86 7 0 15 -7 19 -15 3 -8 10 -15 16 -15 5 0 10 7 10 15 0 8 -4 15 -10 15 -5 0 -10 7 -10 15 0 8 -9 22 -19 32 -11 10 -22 39 -26 66 -6 41 -9 46 -23 35 -12 -11 -17 -9 -30 10 -17 26 -22 27 -48 8z"/> <path d="M3300 4906 c0 -9 -7 -19 -15 -22 -14 -6 -45 -58 -45 -76 0 -21 44 -2 50 22 5 19 14 26 43 31 34 5 38 3 52 -24 18 -35 19 -47 5 -47 -5 0 -10 7 -10 15 0 9 -10 15 -26 15 -19 0 -25 -4 -22 -17 2 -11 11 -17 22 -15 11 2 22 -2 26 -8 4 -7 17 -8 33 -4 50 12 28 93 -25 94 -11 0 -18 8 -18 20 0 13 -7 20 -19 20 -11 0 -26 3 -35 6 -11 4 -16 1 -16 -10z"/> <path d="M3518 4909 c-22 -12 -24 -48 -3 -55 19 -8 19 -29 -1 -59 -15 -23 -15 -25 0 -31 30 -12 46 4 46 45 0 23 -5 41 -12 44 -10 3 -10 7 1 20 13 16 9 47 -6 47 -4 0 -16 -5 -25 -11z"/> <path d="M2654 4899 c-9 -16 18 -30 33 -17 7 6 13 14 13 19 0 13 -38 11 -46 -2z"/> <path d="M3186 4875 c-11 -29 -7 -35 17 -26 12 5 22 14 22 22 0 20 -31 23 -39 4z"/> <path d="M2592 4773 c-22 -25 -30 -73 -13 -73 5 0 19 13 30 29 37 51 22 88 -17 44z"/> <path d="M2662 4774 c4 -21 22 -23 26 -1 2 10 -3 17 -13 17 -10 0 -15 -6 -13 -16z"/> <path d="M3200 4779 c-8 -5 -25 -9 -37 -9 -14 0 -23 -6 -23 -15 0 -8 4 -15 8 -15 15 0 48 -34 68 -70 10 -19 34 -50 53 -67 39 -38 36 -53 -13 -77 -20 -9 -36 -21 -36 -25 0 -13 -35 -19 -54 -9 -11 6 -23 4 -38 -6 -23 -16 -24 -15 27 -31 26 -8 16 -25 -14 -25 -43 0 -46 -15 -11 -46 16 -15 30 -37 30 -50 0 -12 7 -24 15 -28 9 -3 15 0 15 9 0 8 9 19 20 25 27 14 25 28 -4 39 -24 10 -40 34 -29 45 4 3 19 6 35 6 28 0 29 2 23 30 -5 21 -3 30 7 31 7 0 42 2 78 5 78 5 103 -5 77 -34 -24 -26 -21 -34 11 -30 26 3 27 5 29 64 1 56 0 62 -23 73 -14 6 -29 11 -35 11 -5 0 -23 10 -39 22 -25 18 -30 29 -30 65 0 42 0 43 35 43 19 0 35 3 35 8 -1 17 -19 34 -30 27 -7 -4 -16 -2 -20 5 -14 22 -43 3 -36 -24 5 -20 1 -25 -21 -31 -34 -8 -56 18 -48 56 7 30 -4 42 -25 28z m150 -229 c0 -11 -7 -20 -15 -20 -8 0 -15 9 -15 20 0 11 7 20 15 20 8 0 15 -9 15 -20z"/> <path d="M927 4753 c-10 -9 -8 -51 2 -57 7 -5 31 42 31 60 0 7 -26 4 -33 -3z"/> <path d="M2750 4746 c0 -8 7 -16 15 -20 8 -3 15 -16 15 -30 0 -13 -7 -26 -15 -30 -25 -9 -17 -29 10 -24 14 3 25 1 25 -3 0 -12 56 -40 64 -32 11 12 6 21 -15 26 -17 5 -20 11 -15 35 6 24 1 34 -25 60 -35 34 -59 41 -59 18z"/> <path d="M990 4700 c0 -16 5 -30 10 -30 6 0 10 14 10 30 0 17 -4 30 -10 30 -5 0 -10 -13 -10 -30z"/> <path d="M2694 4716 c-4 -10 -2 -22 4 -28 8 -8 13 -7 18 6 4 10 2 22 -4 28 -8 8 -13 7 -18 -6z"/> <path d="M3383 4683 c-4 -10 -10 -20 -14 -23 -4 -3 0 -16 10 -29 15 -20 21 -22 39 -12 16 9 22 21 22 46 0 31 -3 35 -25 35 -15 0 -28 -7 -32 -17z"/> <path d="M2896 4671 c-27 -30 -2 -54 33 -32 8 5 11 16 6 30 -8 26 -17 26 -39 2z"/> <path d="M340 4645 c0 -28 12 -32 30 -10 14 16 6 35 -16 35 -8 0 -14 -10 -14 -25z"/> <path d="M2660 4660 c0 -6 -12 -15 -26 -20 -38 -15 -19 -30 37 -30 53 0 60 9 29 40 -22 22 -40 26 -40 10z"/> <path d="M3513 4643 c-20 -7 -15 -51 6 -63 27 -14 38 -13 45 6 11 30 -22 67 -51 57z"/> <path d="M2510 4620 c0 -23 22 -27 39 -7 13 16 5 27 -21 27 -11 0 -18 -7 -18 -20z"/> <path d="M3197 4616 c-4 -11 3 -21 22 -31 29 -15 29 -15 22 13 -8 30 -35 41 -44 18z"/> <path d="M590 4605 c0 -8 6 -15 14 -15 8 0 18 -9 21 -20 3 -11 13 -20 21 -20 20 0 17 29 -3 37 -10 4 -22 12 -26 20 -11 18 -27 17 -27 -2z"/> <path d="M733 4610 c-26 -10 -25 -9 -27 -68 -3 -50 17 -74 34 -43 6 12 9 33 8 49 -3 25 0 27 35 30 41 4 51 26 15 36 -29 7 -38 7 -65 -4z"/> <path d="M383 4591 c-3 -11 -13 -21 -24 -24 -11 -3 -19 -14 -19 -25 0 -15 -8 -22 -27 -24 -26 -3 -28 -7 -31 -51 -4 -65 27 -97 94 -97 24 0 44 5 44 10 0 6 -4 10 -9 10 -5 0 -17 8 -27 18 -10 9 -27 17 -38 17 -16 0 -22 7 -24 30 -5 36 20 56 59 48 32 -6 35 -2 17 27 -10 15 -9 22 6 39 10 11 15 25 11 30 -10 17 -26 13 -32 -8z"/> <path d="M2747 4604 c-6 -6 46 -64 57 -64 13 0 5 31 -14 50 -21 21 -32 24 -43 14z"/> <path d="M3118 4603 c-19 -5 -24 -18 -9 -28 11 -6 61 15 61 27 0 8 -22 9 -52 1z"/> <path d="M2577 4583 c-15 -14 -6 -33 16 -33 32 0 40 10 19 26 -20 15 -26 17 -35 7z"/> <path d="M2436 4547 c-12 -9 -17 -23 -14 -47 3 -38 25 -52 30 -19 3 22 15 32 52 43 15 5 16 9 6 21 -15 18 -50 19 -74 2z"/> <path d="M3033 4511 c-15 -26 -19 -42 -12 -46 12 -8 71 54 66 69 -8 25 -33 14 -54 -23z"/> <path d="M2951 4521 c-18 -12 -5 -31 20 -31 14 0 19 6 17 17 -4 20 -18 26 -37 14z"/> <path d="M2603 4504 c-9 -23 11 -38 26 -20 13 16 7 36 -10 36 -5 0 -12 -7 -16 -16z"/> <path d="M2720 4499 c0 -24 23 -21 28 4 2 10 -3 17 -12 17 -10 0 -16 -9 -16 -21z"/> <path d="M2842 4509 c2 -6 8 -10 13 -10 5 0 11 4 13 10 2 6 -4 11 -13 11 -9 0 -15 -5 -13 -11z"/> <path d="M3500 4498 c1 -13 10 -34 21 -48 20 -24 21 -24 35 -5 20 26 18 41 -8 59 -31 22 -48 20 -48 -6z"/> <path d="M980 4475 c0 -27 3 -28 38 -19 25 7 29 29 6 38 -31 12 -44 6 -44 -19z"/> <path d="M2885 4480 c-3 -6 5 -14 19 -20 16 -6 26 -17 26 -29 0 -30 13 -32 37 -7 24 25 21 36 -9 36 -10 0 -21 7 -24 15 -7 17 -40 20 -49 5z"/> <path d="M2803 4465 c-23 -10 -30 -29 -15 -39 4 -2 24 -7 45 -11 34 -7 37 -5 37 16 0 31 -36 48 -67 34z"/> <path d="M2647 4453 c-12 -11 -8 -23 8 -23 9 0 32 -16 52 -35 28 -27 34 -39 29 -60 -5 -20 -3 -25 11 -23 42 3 63 -3 63 -18 0 -11 8 -14 27 -12 37 4 43 28 6 28 -20 0 -34 8 -47 28 -10 16 -28 33 -40 38 -12 5 -25 19 -31 32 -5 12 -15 22 -22 22 -7 0 -13 7 -13 15 0 15 -31 21 -43 8z"/> <path d="M3282 4435 c-10 -21 -9 -27 3 -31 8 -3 17 -14 20 -25 4 -13 16 -19 38 -20 24 -1 26 -3 10 -6 -26 -5 -31 -28 -7 -37 10 -4 27 6 47 28 18 18 39 35 47 38 12 5 13 8 2 19 -10 11 -16 11 -32 1 -16 -10 -21 -9 -29 6 -8 14 -12 15 -22 5 -24 -24 -49 -16 -49 17 0 37 -13 39 -28 5z"/> <path d="M3005 4420 c-3 -6 0 -13 9 -16 22 -8 59 -1 64 14 5 15 -64 17 -73 2z"/> <path d="M1014 4399 c-5 -8 -7 -24 -6 -36 2 -11 -1 -24 -7 -27 -6 -4 -8 -13 -5 -21 4 -8 1 -29 -5 -46 -16 -45 -4 -54 26 -19 18 22 33 30 58 30 18 0 38 7 45 15 7 8 19 15 26 15 8 0 14 7 14 15 0 9 -10 15 -26 15 -18 0 -28 6 -31 21 -4 15 -11 19 -27 15 -14 -4 -26 1 -37 16 -13 17 -18 18 -25 7z m84 -71 c-7 -20 -58 -23 -58 -4 0 11 10 16 31 16 20 0 29 -4 27 -12z"/> <path d="M915 4361 c-3 -12 -15 -21 -25 -21 -32 0 -32 -18 0 -25 17 -4 30 -13 30 -22 0 -17 31 -14 38 5 2 7 -5 12 -17 12 -27 0 -27 26 0 33 24 6 21 30 -3 35 -9 2 -19 -6 -23 -17z"/> <path d="M287 4355 c-7 -16 8 -29 23 -20 15 9 12 35 -4 35 -8 0 -16 -7 -19 -15z"/> <path d="M3018 4345 c-6 -30 -2 -35 34 -35 23 0 28 4 28 24 0 41 -55 51 -62 11z"/> <path d="M3254 4347 c-10 -23 -10 -24 18 -10 31 16 37 33 11 33 -10 0 -23 -11 -29 -23z"/> <path d="M3500 4358 c0 -7 9 -24 19 -37 24 -32 54 -22 49 16 -2 23 -8 29 -35 31 -22 2 -33 -1 -33 -10z"/> <path d="M444 4346 c-3 -8 -4 -23 -2 -33 5 -24 -33 -53 -60 -46 -24 6 -61 -29 -62 -58 0 -28 34 -51 61 -41 l23 9 -22 12 c-12 6 -22 18 -22 26 0 18 41 20 57 4 12 -12 53 4 53 22 0 6 12 9 27 7 15 -2 28 2 30 10 3 6 -3 12 -11 12 -25 0 -32 31 -11 46 15 11 16 16 5 29 -16 19 -59 20 -66 1z"/> <path d="M336 4324 c-9 -8 -16 -21 -16 -27 0 -7 7 -4 14 6 8 10 26 17 45 17 17 0 31 5 31 10 0 16 -57 12 -74 -6z"/> <path d="M241 4306 c-5 -13 -16 -26 -24 -29 -11 -4 -17 -26 -20 -74 -3 -37 -8 -107 -12 -155 -7 -87 -7 -88 18 -99 29 -13 41 -45 22 -57 -7 -4 -16 -30 -20 -59 -6 -43 -4 -53 12 -61 16 -9 18 -24 17 -115 0 -78 -5 -114 -18 -142 -17 -35 -17 -45 -3 -154 10 -78 11 -124 5 -141 -10 -25 -23 -166 -37 -410 -7 -106 -5 -142 5 -169 8 -18 14 -44 14 -56 0 -21 17 -35 41 -35 24 0 1 114 -28 135 -15 11 -18 28 -17 92 0 93 9 133 29 133 12 0 15 21 15 125 0 96 4 131 15 149 9 14 15 44 15 72 0 27 -1 58 0 69 0 11 -2 52 -4 90 -5 97 12 195 35 195 9 0 19 -7 23 -15 3 -8 12 -12 21 -9 21 9 19 25 -5 31 -16 4 -20 14 -20 49 0 32 4 44 15 44 11 0 15 11 15 41 0 46 -19 50 -31 6 -4 -15 -16 -38 -28 -53 -18 -23 -22 -24 -27 -10 -4 10 -4 36 -1 60 4 27 2 47 -6 55 -9 9 -9 14 2 20 11 7 12 22 7 63 -4 29 -9 94 -11 143 -1 50 -6 120 -10 157 -6 59 -5 70 14 94 25 32 27 44 6 44 -9 0 -20 -11 -24 -24z"/> <path d="M1180 4301 c0 -5 7 -12 16 -15 22 -9 24 -8 24 9 0 8 -9 15 -20 15 -11 0 -20 -4 -20 -9z"/> <path d="M3273 4288 c-18 -19 -20 -31 -16 -73 3 -27 10 -55 15 -62 5 -7 5 -14 -2 -18 -12 -8 -14 -65 -1 -65 5 0 11 -13 15 -30 7 -37 32 -39 39 -4 4 20 0 28 -15 32 -14 3 -18 12 -16 30 4 32 24 40 31 12 3 -14 13 -20 31 -20 37 0 34 29 -3 36 -17 4 -32 12 -35 20 -3 8 -12 14 -21 14 -19 0 -19 9 1 32 13 13 14 21 5 31 -17 21 -3 27 27 11 15 -8 33 -14 40 -14 19 0 14 -16 -10 -33 l-23 -15 28 -7 c15 -4 27 -13 27 -20 0 -7 6 -15 13 -18 9 -3 7 -10 -6 -25 -22 -24 -8 -37 29 -28 30 8 32 41 4 56 -26 14 -25 34 2 70 27 37 14 59 -22 40 -18 -10 -24 -9 -31 1 -5 8 -9 17 -9 21 0 4 -10 7 -22 5 -15 -1 -26 5 -33 21 -5 12 -12 22 -16 22 -3 0 -15 -10 -26 -22z"/> <path d="M3392 4298 c7 -20 58 -23 58 -4 0 11 -10 16 -31 16 -20 0 -29 -4 -27 -12z"/> <path d="M3080 4279 c0 -16 -4 -19 -21 -14 -25 8 -69 -12 -69 -32 0 -21 79 -17 87 5 4 9 13 22 21 28 8 6 12 16 8 22 -11 19 -26 14 -26 -9z"/> <path d="M812 4263 l-22 -24 30 -30 c27 -27 31 -29 37 -13 4 10 2 19 -5 22 -7 2 -12 11 -12 19 0 10 6 13 17 9 23 -9 35 15 15 31 -23 17 -33 15 -60 -14z"/> <path d="M2668 4248 c-21 -21 -38 -42 -38 -48 0 -13 37 -13 45 1 4 5 17 14 30 19 18 7 21 14 18 34 -3 15 -8 28 -12 30 -3 1 -23 -14 -43 -36z"/> <path d="M2902 4278 c-18 -18 -15 -28 8 -28 13 0 20 7 20 20 0 23 -10 26 -28 8z"/> <path d="M1160 4235 c0 -8 7 -15 15 -15 8 0 15 7 15 15 0 8 -7 15 -15 15 -8 0 -15 -7 -15 -15z"/> <path d="M1212 4207 c-12 -13 -22 -29 -22 -35 0 -15 22 -16 37 -1 8 8 17 5 33 -11 21 -21 21 -23 6 -55 -9 -18 -16 -40 -16 -48 0 -24 -18 -30 -29 -10 -9 16 -12 16 -21 3 -14 -22 -12 -46 5 -64 8 -8 15 -19 15 -25 0 -15 33 -14 48 1 7 7 12 26 12 44 0 54 8 64 51 64 40 0 55 22 24 34 -8 3 -15 17 -15 31 0 21 -5 25 -30 25 -19 0 -30 5 -30 14 0 8 -7 16 -15 20 -8 3 -15 12 -15 21 0 21 -13 19 -38 -8z"/> <path d="M1092 4204 c-7 -8 -18 -12 -24 -8 -6 4 -8 -1 -6 -12 5 -30 52 -30 66 0 16 36 -9 51 -36 20z"/> <path d="M3110 4211 c0 -6 4 -12 9 -15 13 -8 42 4 35 15 -7 12 -44 12 -44 0z"/> <path d="M3499 4198 c-14 -26 0 -41 37 -36 38 4 40 20 4 40 -29 16 -30 16 -41 -4z"/> <path d="M910 4195 c16 -20 5 -45 -20 -45 -16 0 -20 -6 -20 -36 0 -41 26 -70 47 -52 7 5 26 7 44 3 31 -7 31 -8 25 -55 -5 -39 -2 -55 18 -91 28 -49 26 -59 -14 -59 -36 0 -48 17 -24 35 15 11 16 14 4 15 -31 0 -59 -13 -63 -29 -3 -9 -5 -1 -6 17 -1 20 -6 32 -15 32 -7 0 -19 14 -26 30 -10 24 -15 28 -26 19 -20 -17 -17 -52 6 -67 11 -7 20 -18 20 -26 0 -19 30 -42 65 -50 37 -8 31 -8 140 -2 80 4 90 7 90 23 0 10 16 33 35 51 l35 31 -31 1 c-31 0 -64 -25 -64 -49 0 -8 -7 -10 -22 -5 -45 14 -68 36 -68 65 0 15 -4 31 -10 34 -5 3 -10 18 -10 33 l0 27 13 -25 c7 -14 25 -31 40 -38 15 -7 27 -17 27 -23 0 -5 15 -9 33 -9 l32 1 -27 22 c-16 13 -28 27 -28 32 0 5 -12 19 -27 31 l-28 22 58 25 c81 37 76 87 -6 52 -48 -20 -64 -19 -72 5 -4 11 -11 18 -16 15 -14 -10 -10 -47 7 -59 9 -7 12 -18 8 -29 -9 -25 -24 -21 -24 7 0 13 -7 27 -16 30 -10 4 -14 13 -10 22 6 17 -52 84 -74 84 -10 0 -10 -3 0 -15z m45 -80 c0 -5 -10 -11 -22 -13 -16 -2 -23 2 -23 13 0 11 7 15 23 13 12 -2 22 -7 22 -13z"/> <path d="M759 4173 c-25 -27 -25 -31 -18 -100 12 -110 43 -147 62 -74 6 24 12 31 24 27 13 -5 14 -1 8 21 -4 16 -6 44 -6 63 1 22 -7 45 -22 63 l-22 28 -26 -28z m44 -55 c-6 -58 -11 -70 -23 -63 -5 3 -10 28 -10 56 0 42 3 49 19 49 17 0 18 -6 14 -42z"/> <path d="M285 4180 c-7 -12 12 -50 25 -50 5 0 12 -11 15 -23 6 -23 9 -23 58 -16 33 6 53 5 55 -1 6 -15 32 -12 32 4 0 15 -26 46 -39 46 -4 0 -12 -5 -18 -11 -21 -21 -65 -6 -82 28 -16 32 -34 42 -46 23z"/> <path d="M460 4178 c0 -23 18 -41 34 -35 9 4 16 16 16 27 0 15 -7 20 -25 20 -14 0 -25 -6 -25 -12z"/> <path d="M2966 4183 c-3 -3 5 -18 16 -34 17 -22 25 -26 35 -18 7 6 13 15 13 19 0 11 -57 40 -64 33z"/> <path d="M3200 4175 c0 -8 5 -15 10 -15 6 0 10 7 10 15 0 8 -4 15 -10 15 -5 0 -10 -7 -10 -15z"/> <path d="M657 4133 c-4 -3 -7 -19 -7 -35 0 -26 3 -29 28 -26 20 2 28 9 30 27 5 31 -31 55 -51 34z"/> <path d="M1745 4101 c-15 -22 -24 -45 -20 -50 9 -16 35 -13 35 4 0 8 10 23 21 34 13 12 19 26 16 35 -10 25 -22 19 -52 -23z"/> <path d="M1852 4128 c-6 -8 -9 -24 -5 -36 3 -15 0 -27 -11 -35 -8 -7 -19 -27 -22 -44 -6 -29 -4 -33 14 -33 11 0 22 -7 26 -15 3 -8 12 -15 21 -15 21 0 19 26 -5 50 -35 35 -22 70 26 70 8 0 14 -7 14 -15 0 -8 7 -15 15 -15 8 0 15 7 15 15 0 8 -7 15 -15 15 -8 0 -15 3 -15 8 -1 4 -11 20 -24 35 -18 23 -25 26 -34 15z"/> <path d="M1971 4106 c-9 -11 -10 -20 -2 -35 17 -32 13 -69 -9 -81 -24 -13 -27 -43 -3 -38 9 2 21 18 27 36 7 19 19 38 29 43 23 13 21 28 -7 62 -20 24 -24 26 -35 13z"/> <path d="M3507 4103 c-14 -13 -6 -30 17 -41 29 -13 51 5 40 32 -6 16 -44 22 -57 9z"/> <path d="M360 4060 c0 -5 9 -10 21 -10 11 0 17 5 14 10 -3 6 -13 10 -21 10 -8 0 -14 -4 -14 -10z"/> <path d="M447 4034 c-26 -31 -32 -33 -68 -28 -32 5 -39 4 -39 -10 0 -9 7 -16 16 -16 9 0 23 -8 30 -17 13 -17 15 -17 25 0 14 24 59 22 66 -3 10 -38 22 -9 21 50 -1 69 -10 74 -51 24z"/> <path d="M2946 4063 c-11 -11 -6 -23 9 -23 8 0 15 4 15 9 0 13 -16 22 -24 14z"/> <path d="M3343 4058 c2 -7 10 -13 17 -13 7 0 15 6 18 13 2 7 -5 12 -18 12 -13 0 -20 -5 -17 -12z"/> <path d="M920 4006 c0 -13 -7 -26 -15 -30 -18 -6 -21 -40 -3 -34 22 8 49 53 42 71 -9 25 -24 21 -24 -7z"/> <path d="M3410 4010 c0 -24 -8 -25 -30 -5 -10 9 -24 13 -33 9 -24 -9 -60 -74 -48 -88 5 -6 14 -30 20 -53 7 -24 21 -47 32 -53 11 -6 17 -15 14 -20 -9 -15 6 -60 20 -60 19 0 29 -18 17 -33 -7 -10 -8 -30 -3 -79 1 -12 41 -10 41 2 0 5 -5 20 -11 34 -9 19 -9 29 0 40 7 8 14 28 16 45 3 24 -3 36 -31 60 -18 17 -34 37 -34 46 0 9 -9 29 -21 44 -14 19 -19 36 -14 50 8 26 21 27 37 1 16 -25 38 -26 38 -1 0 10 7 24 15 31 22 18 19 50 -5 50 -13 0 -20 -7 -20 -20z"/> <path d="M2040 3971 c0 -12 5 -21 10 -21 6 0 10 6 10 14 0 8 -4 18 -10 21 -5 3 -10 -3 -10 -14z"/> <path d="M3511 3981 c-19 -12 -5 -31 23 -31 29 0 39 10 25 27 -13 15 -28 16 -48 4z"/> <path d="M287 3953 c-13 -13 -7 -31 12 -36 13 -3 22 -17 27 -42 8 -44 39 -64 72 -46 17 9 20 17 15 44 -8 43 -11 45 -29 19 -17 -24 -47 -30 -38 -8 3 7 -1 20 -8 27 -8 8 -17 22 -21 32 -7 18 -19 22 -30 10z"/> <path d="M1695 3949 c-4 -5 5 -21 20 -35 45 -42 64 -25 21 20 -26 29 -32 31 -41 15z"/> <path d="M2000 3930 c-8 -5 -23 -11 -33 -14 -10 -3 -15 -10 -12 -16 11 -18 42 -10 59 15 17 26 12 30 -14 15z"/> <path d="M3502 3888 c-17 -17 -15 -31 7 -57 11 -13 22 -28 24 -34 3 -8 10 -7 22 4 14 14 14 18 2 30 -7 8 -17 27 -21 42 -7 30 -16 33 -34 15z"/> <path d="M1747 3860 c-10 -10 -14 -20 -10 -23 5 -3 56 -6 114 -7 152 -2 169 -1 169 8 0 17 -110 34 -171 27 -40 -5 -59 -3 -59 4 0 17 -23 12 -43 -9z"/> <path d="M1605 3826 c-20 -14 -14 -20 28 -30 29 -7 75 11 61 24 -18 15 -72 19 -89 6z"/> <path d="M2113 3833 c-29 -3 -43 -9 -43 -19 0 -10 14 -14 55 -14 42 0 60 -5 76 -21 22 -22 44 -21 44 2 0 8 -11 16 -25 17 -13 2 -30 13 -38 23 -7 10 -16 18 -20 17 -4 -1 -26 -3 -49 -5z"/> <path d="M1540 3798 l-25 -10 22 -10 c25 -12 56 -3 51 14 -6 17 -19 18 -48 6z"/> <path d="M1974 3795 c-7 -17 4 -37 17 -30 12 8 12 45 -1 45 -6 0 -13 -7 -16 -15z"/> <path d="M995 3784 c-21 -22 -14 -38 18 -42 24 -3 27 0 27 27 0 35 -19 41 -45 15z"/> <path d="M3018 3783 c-25 -6 -22 -45 5 -71 16 -15 34 -21 66 -20 30 0 48 -5 56 -16 7 -9 26 -16 44 -16 20 0 35 -7 43 -20 15 -24 68 -28 68 -6 0 8 9 18 20 21 11 3 20 11 20 16 0 5 -9 9 -20 9 -11 0 -20 -4 -20 -10 0 -5 -11 -10 -25 -10 -29 0 -33 15 -8 29 26 14 10 23 -20 12 -19 -8 -36 -6 -61 4 -20 8 -50 15 -68 16 -18 0 -27 3 -20 6 13 5 17 33 4 33 -4 0 -13 -5 -19 -11 -14 -14 -53 -2 -53 16 0 7 6 16 13 18 15 7 -2 6 -25 0z"/> <path d="M2032 3758 c2 -13 8 -23 13 -23 6 0 11 10 13 23 2 15 -2 22 -13 22 -11 0 -15 -7 -13 -22z"/> <path d="M2793 3773 c-25 -10 -12 -31 27 -47 31 -12 46 -14 61 -5 19 10 18 12 -16 35 -36 24 -49 27 -72 17z"/> <path d="M1708 3752 c-22 -14 -33 -15 -57 -6 -28 11 -29 10 -34 -20 -5 -36 -1 -44 15 -28 7 7 32 12 56 12 44 0 71 18 72 48 0 16 -19 14 -52 -6z"/> <path d="M2102 3746 c-20 -20 -21 -24 -8 -35 22 -18 56 3 56 34 0 31 -18 31 -48 1z"/> <path d="M2255 3760 c-3 -6 5 -14 19 -20 14 -5 26 -14 26 -20 0 -5 9 -10 19 -10 10 0 22 -7 25 -16 7 -18 47 -15 54 4 2 8 -7 12 -26 12 -17 0 -32 6 -36 15 -3 8 -12 15 -21 15 -8 0 -15 7 -15 15 0 17 -35 21 -45 5z"/> <path d="M2695 3745 c-29 -24 -30 -25 -12 -54 9 -16 17 -38 17 -50 0 -11 9 -25 20 -31 20 -11 20 -9 18 75 -1 47 -5 85 -8 85 -3 -1 -18 -12 -35 -25z"/> <path d="M1456 3741 c-17 -19 -17 -20 6 -32 13 -7 28 -18 33 -24 14 -17 45 -26 47 -15 4 29 1 35 -22 40 -16 4 -26 14 -28 28 -4 27 -14 28 -36 3z"/> <path d="M3499 3704 c-20 -24 4 -40 36 -26 15 7 24 16 21 21 -10 16 -45 19 -57 5z"/> <path d="M984 3699 c-6 -10 11 -29 26 -29 3 0 11 4 19 9 17 11 5 31 -19 31 -10 0 -22 -5 -26 -11z"/> <path d="M1377 3704 c-11 -12 3 -24 29 -24 15 0 24 6 24 15 0 15 -40 21 -53 9z"/> <path d="M1760 3700 c0 -16 22 -23 67 -21 37 1 48 -4 73 -29 20 -21 32 -27 34 -18 14 46 16 48 50 48 26 0 36 -5 41 -20 7 -21 30 -27 39 -11 10 15 -4 38 -28 49 -28 12 -276 15 -276 2z"/> <path d="M2176 3701 c-6 -10 10 -25 36 -34 15 -5 16 -3 6 18 -11 25 -32 33 -42 16z"/> <path d="M2935 3689 c-6 -19 -13 -21 -77 -17 l-70 4 6 -28 c5 -23 1 -31 -18 -40 -23 -10 -24 -13 -19 -86 5 -61 3 -77 -10 -86 -19 -15 -34 -86 -18 -86 6 0 14 -8 18 -17 3 -10 13 -26 22 -36 14 -17 14 -19 -2 -28 -10 -6 -17 -22 -17 -39 0 -25 4 -30 24 -30 15 0 27 -7 30 -17 8 -27 11 -301 3 -309 -3 -4 -49 -6 -102 -5 -91 2 -96 1 -118 -24 -14 -17 -41 -31 -72 -38 -57 -13 -400 -15 -597 -4 l-127 8 -3 -28 -3 -28 -81 4 c-45 1 -91 0 -103 -4 -28 -8 -27 -32 2 -38 12 -3 227 -2 477 2 250 3 463 5 473 2 22 -4 24 -73 2 -91 -8 -7 -15 -18 -15 -25 0 -7 -7 -18 -15 -25 -8 -7 -15 -25 -15 -41 0 -28 2 -29 49 -29 34 0 51 4 55 15 3 8 14 15 25 15 11 0 22 8 26 19 4 13 12 17 30 13 27 -5 34 12 12 25 -8 4 -17 16 -20 27 -5 13 -14 17 -30 12 -12 -3 -29 -1 -36 4 -12 7 -12 11 -2 24 9 11 10 16 2 16 -6 0 -11 6 -11 14 0 7 -10 20 -21 28 -20 13 -21 15 -5 31 11 10 30 16 48 15 19 -2 33 3 39 15 14 25 47 22 51 -5 4 -29 23 -25 23 5 0 14 7 23 20 25 53 8 66 15 75 38 19 50 35 21 35 -64 0 -48 4 -82 10 -82 6 0 10 34 10 82 0 56 4 83 12 85 7 3 16 -2 19 -11 3 -9 12 -16 20 -16 19 0 18 -20 -3 -35 -11 -8 -14 -18 -9 -31 7 -18 8 -18 26 4 11 13 24 20 30 17 12 -7 50 21 50 37 0 4 -6 8 -14 8 -8 0 -18 5 -22 11 -8 13 48 3 80 -13 18 -10 18 -12 3 -23 -23 -17 -21 -35 3 -35 11 0 20 7 20 15 0 18 38 20 75 3 14 -6 27 -9 29 -7 3 3 0 25 -5 49 -9 39 -8 47 9 60 24 20 41 70 35 103 -7 35 28 186 42 181 7 -3 9 18 8 61 -2 65 -2 65 22 59 24 -6 33 5 18 20 -8 8 -9 14 -12 84 -1 30 -5 42 -16 42 -9 0 -20 11 -25 25 -11 30 -40 33 -40 5 0 -23 -15 -27 -23 -6 -3 7 8 24 23 37 31 26 39 49 16 49 -25 0 -46 -12 -46 -26 0 -8 -7 -14 -15 -14 -18 0 -19 12 -3 28 22 22 -10 62 -48 62 -23 0 -37 6 -44 20 -9 17 -17 20 -48 14 -20 -3 -41 -11 -47 -18 -11 -12 -55 -10 -55 3 0 5 9 15 20 22 19 13 20 16 5 37 -20 28 -42 28 -50 1z m203 -120 c-2 -6 -8 -10 -13 -10 -5 0 -11 4 -13 10 -2 6 4 11 13 11 9 0 15 -5 13 -11z m-82 -36 l29 2 -3 -92 c-3 -80 -1 -93 12 -93 9 0 16 6 16 14 0 8 8 24 18 36 14 17 23 20 45 15 25 -7 28 -11 25 -44 -3 -31 -7 -36 -30 -39 -16 -2 -28 -8 -28 -14 0 -6 -8 -20 -17 -31 -10 -10 -18 -33 -18 -50 0 -29 -2 -31 -38 -32 -21 -1 -43 -7 -48 -12 -15 -15 7 -53 29 -51 45 3 62 -3 77 -32 19 -37 33 -38 41 -2 4 15 14 32 21 37 22 16 6 68 -18 62 -15 -4 -19 0 -19 18 0 13 -3 30 -6 39 -4 12 0 16 15 16 23 0 27 -10 9 -28 -9 -9 -6 -14 13 -21 33 -13 40 -3 46 70 11 131 54 198 68 104 6 -36 4 -50 -9 -64 -10 -11 -20 -44 -23 -77 -4 -36 -12 -62 -20 -67 -9 -6 -13 -17 -9 -32 4 -15 0 -30 -11 -41 -12 -11 -19 -38 -21 -82 -4 -50 -11 -74 -33 -107 -16 -24 -29 -50 -29 -59 0 -22 -22 -20 -50 4 -13 11 -36 20 -52 20 -30 0 -102 32 -113 50 -3 5 -16 10 -28 10 -42 0 -48 12 -39 79 5 34 5 64 1 67 -5 2 -9 17 -9 32 -1 15 -3 65 -4 112 -4 105 -13 147 -37 163 -11 9 -15 18 -9 27 4 7 6 28 3 45 -4 23 -1 34 10 38 22 8 55 -20 59 -51 3 -26 6 -27 61 -30 55 -3 57 -2 57 23 0 28 -24 35 -34 9 -5 -13 -9 -14 -21 -4 -13 11 -12 16 6 39 22 28 58 43 75 30 5 -5 23 -7 40 -6z m104 -368 c0 -8 -4 -15 -10 -15 -5 0 -10 7 -10 15 0 8 5 15 10 15 6 0 10 -7 10 -15z"/> <path d="M3027 3443 c-13 -12 -7 -33 8 -33 8 0 15 9 15 20 0 20 -11 26 -23 13z"/> <path d="M2945 3383 c-17 -25 -23 -68 -12 -79 11 -12 56 29 62 56 12 54 -20 69 -50 23z"/> <path d="M2870 3302 c0 -4 6 -17 14 -28 8 -11 16 -32 18 -47 4 -38 22 -39 26 -1 2 19 -5 40 -18 57 -21 26 -40 35 -40 19z"/> <path d="M2937 3144 c-16 -16 -5 -35 29 -49 48 -20 94 -20 94 0 0 8 -5 15 -12 15 -6 0 -19 6 -27 14 -19 17 -74 30 -84 20z"/> <path d="M3087 3073 c-9 -8 35 -63 45 -57 15 10 8 32 -16 47 -13 9 -26 13 -29 10z"/> <path d="M1277 3683 c-16 -15 -6 -33 18 -33 18 0 25 5 25 20 0 20 -28 28 -43 13z"/> <path d="M2455 3681 c-10 -17 4 -31 31 -31 19 0 25 5 22 18 -4 19 -43 29 -53 13z"/> <path d="M1699 3673 c-1 -5 0 -16 1 -27 1 -10 -4 -22 -10 -26 -9 -5 -8 -15 4 -39 21 -41 36 -39 36 3 0 21 6 36 16 40 13 5 13 9 -3 31 -17 23 -42 33 -44 18z"/> <path d="M2300 3665 c0 -8 7 -15 15 -15 8 0 15 7 15 15 0 8 -7 15 -15 15 -8 0 -15 -7 -15 -15z"/> <path d="M1370 3635 c0 -10 7 -15 18 -13 21 4 19 22 -2 26 -10 2 -16 -3 -16 -13z"/> <path d="M1812 3625 c-23 -24 -30 -65 -11 -65 15 0 48 42 49 62 0 27 -14 28 -38 3z"/> <path d="M2390 3630 c0 -5 10 -19 23 -31 l22 -21 -22 -15 c-13 -9 -23 -19 -23 -24 0 -15 37 -10 50 6 7 8 19 15 27 15 24 0 11 45 -14 48 -12 2 -27 10 -33 18 -14 16 -30 19 -30 4z"/> <path d="M1235 3622 c-24 -17 -46 -52 -40 -61 4 -7 24 -1 56 15 45 24 48 28 32 40 -20 15 -34 17 -48 6z"/> <path d="M1550 3615 c-16 -19 3 -45 32 -45 10 0 21 -7 25 -16 10 -27 47 -61 61 -57 19 7 14 30 -8 36 -11 3 -20 12 -20 20 0 8 -13 20 -30 26 -16 5 -30 17 -30 25 0 22 -16 28 -30 11z"/> <path d="M3323 3622 c-13 -9 7 -163 22 -159 12 4 25 101 18 134 -5 23 -24 35 -40 25z"/> <path d="M1407 3595 c-15 -22 -16 -26 -3 -31 15 -6 56 28 56 46 0 19 -35 9 -53 -15z"/> <path d="M2032 3578 c2 -24 8 -43 13 -43 6 0 11 19 13 43 3 33 0 42 -13 42 -13 0 -16 -9 -13 -42z"/> <path d="M2216 3612 c-3 -6 -1 -14 5 -17 15 -10 25 3 12 16 -7 7 -13 7 -17 1z"/> <path d="M2307 3613 c-9 -8 40 -53 59 -53 7 0 14 7 14 15 0 8 -5 15 -11 15 -6 0 -17 7 -25 15 -17 16 -27 19 -37 8z"/> <path d="M2510 3596 c0 -19 7 -27 25 -32 14 -3 30 -15 35 -25 6 -10 17 -16 25 -13 21 8 19 31 -3 38 -9 3 -22 16 -27 28 -6 13 -20 24 -32 26 -19 3 -23 -1 -23 -22z"/> <path d="M1940 3570 c0 -20 5 -30 15 -30 10 0 15 10 15 30 0 20 -5 30 -15 30 -10 0 -15 -10 -15 -30z"/> <path d="M2150 3576 c0 -27 12 -46 30 -46 10 0 23 -7 30 -15 20 -24 30 -17 30 21 0 33 -2 36 -24 30 -15 -4 -28 0 -36 9 -16 19 -30 19 -30 1z"/> <path d="M2687 3577 c-3 -8 -8 -39 -12 -70 -4 -32 -11 -58 -16 -58 -31 -6 -34 -3 -31 30 3 24 0 32 -10 29 -12 -4 -19 -39 -18 -95 0 -26 -15 -31 -24 -7 -9 23 -51 14 -51 -11 -1 -11 -9 -30 -19 -42 -16 -18 -23 -20 -45 -10 -42 17 -47 26 -25 43 18 14 16 15 -26 9 -53 -7 -97 -33 -114 -66 -7 -15 -22 -25 -41 -27 l-29 -4 27 36 c21 27 24 37 14 43 -8 4 -16 16 -20 26 -8 21 -26 22 -34 2 -3 -9 2 -22 13 -30 18 -13 17 -14 -13 -15 -30 0 -32 3 -35 38 -3 40 -21 47 -26 10 -2 -13 -9 -29 -15 -36 -8 -10 -5 -14 11 -19 27 -7 28 -15 4 -36 -24 -22 -39 -21 -52 3 -6 11 -17 20 -25 20 -7 0 -17 -9 -20 -20 -9 -29 -99 -29 -115 0 -10 19 -13 19 -40 5 -16 -8 -35 -15 -43 -15 -8 0 -17 -9 -20 -21 -8 -30 -41 -21 -45 13 -2 17 5 33 19 47 20 18 20 21 5 27 -33 13 -79 -53 -56 -81 16 -19 -5 -29 -30 -13 -18 11 -23 10 -31 -5 -6 -9 -15 -14 -21 -11 -7 5 -6 11 4 18 8 6 18 23 22 39 5 22 3 27 -13 27 -10 0 -21 -7 -25 -15 -7 -19 -56 -20 -56 -1 0 8 7 17 16 20 16 6 16 8 0 24 -9 10 -16 28 -16 40 0 15 -6 22 -20 22 -24 0 -25 -11 -5 -51 15 -29 15 -30 -12 -40 l-27 -10 29 -24 c17 -13 38 -24 48 -25 26 0 20 -18 -13 -35 -41 -21 -55 -19 -68 10 -14 30 -26 31 -87 4 -25 -11 -49 -18 -52 -15 -13 12 8 36 32 36 20 0 25 5 25 24 0 38 -17 40 -49 6 -30 -33 -63 -35 -74 -6 -3 8 -19 17 -36 21 -17 4 -40 19 -51 35 l-21 29 26 7 c30 7 28 28 -3 32 -26 4 -27 10 -7 32 14 15 14 18 0 30 -14 11 -17 10 -21 -7 -6 -21 -40 -37 -56 -27 -15 10 -8 32 13 37 24 6 17 27 -9 27 -21 -1 -75 -77 -61 -85 5 -4 24 -6 42 -4 52 3 67 0 67 -15 0 -8 -8 -17 -17 -21 -17 -6 -17 -7 0 -19 9 -7 17 -18 17 -25 0 -6 6 -14 14 -17 8 -3 17 -16 20 -29 3 -13 16 -25 31 -29 16 -4 25 -13 25 -26 0 -26 -15 -25 -48 1 -20 15 -35 19 -58 14 -18 -3 -35 -1 -39 5 -10 16 -28 12 -57 -15 -21 -19 -38 -25 -72 -25 -45 0 -45 0 -29 20 21 24 33 26 33 5 0 -24 24 -18 53 13 27 28 27 42 -1 42 -7 0 -25 9 -39 20 -33 25 -40 25 -49 -2 -4 -13 -15 -34 -26 -48 -18 -25 -22 -26 -71 -17 -29 5 -61 14 -72 19 -23 10 -75 -5 -75 -22 0 -5 -8 -10 -18 -10 -30 0 -82 -75 -82 -118 0 -11 -9 -31 -21 -46 -17 -22 -19 -29 -8 -42 8 -10 9 -18 3 -22 -6 -4 -13 -15 -17 -24 -7 -19 -37 -25 -37 -8 0 6 -7 10 -16 10 -14 0 -14 -2 0 -15 25 -25 30 -55 10 -69 -13 -10 -15 -21 -10 -52 6 -32 5 -37 -5 -26 -7 6 -19 12 -26 12 -14 0 -58 -39 -46 -41 5 -1 13 -2 18 -4 6 -1 16 -3 23 -3 19 -3 14 -20 -9 -27 -15 -5 -19 -13 -15 -28 3 -12 -1 -25 -11 -32 -24 -18 0 -75 31 -75 28 0 46 -18 46 -46 0 -29 16 -33 125 -30 50 2 113 1 142 -2 43 -4 52 -8 55 -26 5 -32 23 -20 24 16 0 33 14 44 40 34 11 -4 12 -10 5 -24 -7 -13 -6 -27 5 -46 17 -35 17 -36 -1 -36 -25 0 -58 -78 -51 -121 4 -23 2 -39 -5 -41 -6 -2 -13 -21 -16 -43 -4 -35 -1 -44 26 -69 17 -17 31 -38 31 -48 0 -23 27 -24 34 0 5 15 15 16 73 11 38 -3 76 -9 86 -13 13 -6 16 -5 11 8 -10 26 23 19 42 -9 9 -13 24 -27 35 -30 10 -4 19 -14 19 -23 0 -10 8 -25 17 -33 10 -9 23 -24 29 -34 6 -12 16 -16 27 -12 24 9 21 21 -9 38 -27 14 -49 54 -38 70 3 5 20 9 39 9 19 0 37 5 41 11 4 7 29 10 65 7 33 -2 59 -1 59 4 0 4 11 8 24 8 13 0 26 6 29 13 2 6 8 9 12 5 4 -4 3 -14 -3 -21 -7 -8 -9 -16 -6 -20 8 -7 37 3 46 17 5 8 11 7 19 -1 10 -10 9 -14 -4 -19 -9 -3 -17 -17 -17 -29 0 -15 -8 -26 -20 -30 -37 -12 -16 -55 27 -55 21 0 22 2 11 21 -10 17 -10 23 0 26 6 3 12 18 12 35 0 27 2 29 28 23 20 -4 33 -1 42 10 7 8 21 15 31 15 9 0 24 7 33 15 8 8 24 15 35 15 18 0 20 -3 9 -19 -9 -15 -9 -23 0 -33 6 -8 9 -24 5 -36 -6 -24 6 -29 25 -10 9 9 17 9 36 -1 15 -9 38 -11 65 -6 55 9 42 25 -20 25 -40 0 -49 3 -49 18 0 9 -9 23 -20 30 -24 15 -26 32 -4 32 9 0 18 -9 21 -20 8 -30 77 -46 109 -25 13 8 24 22 24 30 0 10 10 15 30 15 30 0 41 -15 18 -23 -10 -3 -10 -11 -3 -32 15 -43 35 -44 35 -1 0 26 4 36 16 36 9 0 18 -9 21 -20 4 -16 11 -19 27 -14 11 3 26 12 32 20 14 18 54 18 54 0 0 -8 6 -16 14 -19 7 -3 16 -19 19 -36 5 -22 12 -31 27 -31 12 0 20 -7 20 -18 0 -10 7 -28 16 -41 14 -20 15 -29 5 -63 -9 -28 -9 -44 -2 -51 13 -13 26 16 18 38 -9 23 12 29 33 10 16 -15 22 -15 35 -5 9 7 15 8 15 2 0 -6 -6 -12 -12 -15 -7 -2 -9 -8 -5 -13 4 -4 17 -3 27 4 16 10 20 10 20 -2 0 -8 -5 -18 -10 -21 -6 -4 -8 -10 -5 -15 3 -4 22 1 42 12 43 22 89 18 109 -10 12 -16 14 -16 43 6 17 12 35 22 40 22 25 0 60 25 65 46 4 14 15 24 29 26 13 2 23 11 25 23 1 11 16 26 32 34 35 15 39 31 10 38 -20 5 -29 43 -10 43 6 0 10 6 10 14 0 7 7 27 15 42 8 16 15 48 15 72 0 35 -3 42 -20 42 -14 0 -20 -7 -20 -22 0 -13 -8 -45 -19 -72 -18 -48 -20 -50 -59 -52 l-40 -2 -4 41 c-6 58 1 80 23 74 11 -3 19 2 22 13 2 10 18 20 37 23 32 7 32 7 25 54 -4 27 -10 52 -15 57 -13 13 -30 -3 -30 -30 0 -33 -27 -84 -44 -84 -8 0 -16 9 -19 20 -3 11 -10 20 -16 20 -17 0 -13 -30 4 -36 24 -10 17 -27 -21 -53 l-36 -25 23 -17 c15 -11 20 -22 16 -34 -5 -12 -1 -18 13 -22 10 -3 22 -14 25 -24 4 -10 15 -19 26 -19 10 0 19 -4 19 -9 0 -5 9 -13 20 -16 29 -9 26 -45 -4 -45 -13 0 -37 -13 -52 -29 -45 -45 -65 -46 -93 -6 -26 39 -30 40 -56 21 -17 -12 -16 -13 11 -20 34 -9 64 -33 64 -52 0 -22 -49 -29 -68 -10 -9 9 -26 23 -36 30 -12 8 -19 25 -19 46 0 26 -5 34 -29 42 -15 6 -28 16 -28 23 0 20 -21 30 -31 14 -14 -22 -11 -29 11 -29 11 0 20 -6 20 -14 0 -8 9 -18 21 -21 11 -4 18 -12 16 -18 -5 -15 -52 -27 -68 -17 -7 5 -21 5 -30 -1 -19 -10 -41 16 -53 64 -3 15 -13 27 -21 27 -8 0 -15 9 -15 21 0 11 -5 30 -12 42 -6 12 -13 34 -15 49 l-3 28 57 -5 c34 -2 52 -1 44 4 -9 6 -11 18 -7 35 7 28 26 36 26 11 0 -19 14 -19 30 1 11 13 10 16 -8 21 -12 3 -22 9 -22 13 0 5 23 28 51 53 41 36 60 46 101 50 46 6 52 4 78 -24 25 -28 29 -29 38 -14 10 20 32 12 32 -11 0 -18 16 -18 23 1 3 7 -2 24 -13 37 -15 18 -22 21 -36 12 -13 -8 -22 -5 -41 12 -12 12 -23 26 -23 33 0 6 -17 11 -39 11 -28 0 -42 6 -52 20 -11 17 -21 19 -46 14 -28 -6 -32 -11 -35 -43 -2 -25 -9 -39 -24 -45 -11 -5 -28 -23 -38 -40 -14 -24 -19 -27 -27 -15 -14 23 -10 49 9 56 18 7 51 43 52 56 0 4 -15 7 -34 7 -49 0 -70 -35 -61 -101 4 -27 11 -51 16 -54 15 -10 -3 -36 -21 -30 -13 4 -23 -4 -36 -25 l-19 -31 -645 0 c-355 1 -648 1 -652 1 -5 0 -8 12 -8 26 0 17 6 28 20 31 15 4 20 14 20 40 0 24 9 43 30 66 24 26 30 41 30 76 0 27 -6 51 -16 63 -16 16 -16 18 0 24 12 5 16 19 16 60 0 63 0 63 118 42 42 -7 76 -8 88 -3 10 5 42 11 69 12 94 5 190 14 205 19 11 5 9 9 -10 16 -57 22 -611 14 -656 -10 -10 -5 -89 -11 -174 -13 -136 -4 -155 -2 -158 12 -2 10 5 19 18 22 11 3 20 13 20 25 0 11 7 22 15 26 8 3 15 17 15 31 0 16 6 25 15 25 8 0 24 9 35 20 11 11 25 20 31 20 7 0 10 25 7 72 -3 66 -1 73 17 76 41 8 47 22 43 106 l-3 81 475 0 c361 0 480 3 497 13 12 6 47 12 77 12 41 0 57 4 64 17 9 15 37 17 295 15 240 -1 287 1 297 13 7 8 25 15 40 15 15 0 33 7 40 15 7 8 20 15 30 15 10 0 23 7 30 15 8 9 29 15 55 15 46 0 55 10 55 57 0 14 7 31 15 37 12 9 14 20 6 59 -5 27 -6 57 -4 68 6 21 -12 26 -20 6z m-301 -237 c8 0 14 -7 14 -15 0 -10 -10 -15 -30 -15 -24 0 -30 4 -30 21 0 15 4 19 16 15 9 -3 22 -6 30 -6z m-1533 -730 c-14 -13 -68 -19 -83 -10 -20 12 -3 27 35 32 32 4 61 -10 48 -22z m1059 -422 c-6 -6 -16 -7 -22 -3 -9 6 -9 9 1 16 17 10 34 0 21 -13z m588 -238 c0 -5 -6 -10 -14 -10 -8 0 -18 5 -21 10 -3 6 3 10 14 10 12 0 21 -4 21 -10z"/> <path d="M3515 3570 c-18 -20 -18 -21 2 -40 12 -10 23 -25 26 -32 7 -22 15 -5 18 42 4 52 -15 64 -46 30z"/> <path d="M1514 3555 c-7 -18 14 -47 27 -39 5 3 9 16 9 30 0 27 -27 34 -36 9z"/> <path d="M1440 3532 c-19 -2 -38 -6 -42 -10 -10 -10 6 -107 17 -105 6 1 12 19 15 40 4 31 9 39 30 41 58 8 40 40 -20 34z"/> <path d="M297 3524 c-11 -12 3 -24 29 -24 15 0 24 6 24 15 0 15 -40 21 -53 9z"/> <path d="M1736 3491 c-37 -38 -38 -39 -18 -50 11 -6 23 -11 25 -11 11 0 58 80 52 89 -10 17 -17 13 -59 -28z"/> <path d="M2107 3524 c-10 -11 3 -24 24 -24 10 0 19 7 19 15 0 15 -31 21 -43 9z"/> <path d="M2518 3508 c7 -7 12 -18 12 -25 0 -18 -35 -16 -50 2 -14 16 -60 21 -60 6 0 -6 11 -22 24 -36 28 -31 63 -29 106 5 l25 20 -25 20 c-27 21 -52 28 -32 8z"/> <path d="M1966 3497 c-16 -12 -16 -14 6 -32 27 -23 75 -55 83 -55 3 0 5 7 5 15 0 8 -5 15 -11 15 -7 0 -9 11 -6 26 3 20 -1 27 -20 35 -32 12 -36 11 -57 -4z"/> <path d="M1280 3485 c0 -10 7 -15 18 -13 21 4 19 22 -2 26 -10 2 -16 -3 -16 -13z"/> <path d="M2310 3491 c0 -6 5 -13 10 -16 6 -3 10 -15 10 -26 0 -23 13 -25 30 -4 10 13 10 19 -5 35 -19 21 -45 27 -45 11z"/> <path d="M1522 3461 c4 -13 18 -16 19 -4 0 4 -5 9 -11 12 -7 2 -11 -2 -8 -8z"/> <path d="M1037 3443 c-18 -17 -5 -33 28 -33 28 0 35 -4 35 -20 0 -22 15 -27 26 -8 4 6 0 16 -9 23 -10 7 -17 17 -17 22 0 6 -10 13 -22 17 -29 7 -33 7 -41 -1z"/> <path d="M1853 3418 c4 -12 1 -28 -5 -35 -13 -16 -3 -43 16 -43 8 0 17 9 21 19 8 27 46 35 52 10 8 -31 33 -23 33 11 0 25 -4 30 -24 30 -13 0 -29 7 -36 15 -7 8 -24 15 -37 15 -21 0 -24 -4 -20 -22z"/> <path d="M1322 3412 c-32 -10 -32 -26 0 -30 14 -2 32 -10 38 -18 14 -16 46 -19 55 -4 3 6 -5 14 -18 19 -13 5 -27 17 -30 25 -7 17 -9 18 -45 8z"/> <path d="M1502 3398 c-17 -17 -15 -48 2 -48 19 0 46 27 46 46 0 17 -31 19 -48 2z"/> <path d="M1702 3388 c2 -13 8 -23 13 -23 6 0 11 10 13 23 2 15 -2 22 -13 22 -11 0 -15 -7 -13 -22z"/> <path d="M2072 3398 c3 -7 13 -15 22 -16 12 -3 17 1 14 10 -3 7 -13 15 -22 16 -12 3 -17 -1 -14 -10z"/> <path d="M3510 3387 c0 -41 43 -65 52 -29 8 32 -3 52 -28 52 -18 0 -24 -5 -24 -23z"/> <path d="M290 3365 c0 -11 7 -15 23 -13 12 2 22 8 22 13 0 6 -10 11 -22 13 -16 2 -23 -2 -23 -13z"/> <path d="M1978 3328 c9 -9 15 -9 24 0 9 9 7 12 -12 12 -19 0 -21 -3 -12 -12z"/> <path d="M3525 3231 c4 -21 2 -30 -9 -34 -19 -8 -21 -58 -4 -75 15 -15 48 -16 48 -1 0 7 -8 18 -17 25 -15 11 -16 16 -5 31 20 29 33 64 26 74 -3 5 -14 9 -25 9 -17 0 -20 -4 -14 -29z"/> <path d="M1882 3128 c2 -63 1 -73 -15 -76 -9 -2 -17 -10 -17 -17 0 -9 14 -13 45 -13 41 0 45 2 45 23 0 37 19 40 31 6 10 -29 14 -31 64 -31 l54 0 3 57 c2 46 7 58 21 61 12 3 21 -6 28 -27 13 -37 36 -40 49 -6 6 15 17 25 30 25 16 0 20 7 20 35 0 32 -2 35 -30 35 -27 0 -30 -3 -30 -30 0 -19 -5 -30 -14 -30 -8 0 -23 14 -33 30 -13 22 -25 30 -45 30 -28 0 -28 -1 -28 -60 0 -70 -14 -83 -57 -55 l-27 18 28 22 c19 15 27 29 24 46 -3 23 -8 24 -76 27 l-74 3 4 -73z m88 28 c0 -19 -14 -28 -34 -20 -25 10 -19 34 9 34 15 0 25 -6 25 -14z"/> <path d="M2298 3118 l-3 -83 -19 43 c-11 23 -23 39 -26 35 -13 -14 -20 -78 -10 -93 15 -24 78 15 88 54 6 23 15 32 35 36 57 11 92 79 45 88 -14 3 -18 -3 -18 -27 0 -26 -4 -31 -25 -31 -21 0 -25 5 -25 30 0 23 -4 30 -20 30 -17 0 -20 -8 -22 -82z"/> <path d="M2481 3173 c0 -16 4 -37 8 -47 7 -18 8 -18 14 5 11 41 8 69 -8 69 -10 0 -15 -9 -14 -27z"/> <path d="M1800 3155 c0 -9 9 -15 25 -15 16 0 25 6 25 15 0 9 -9 15 -25 15 -16 0 -25 -6 -25 -15z"/> <path d="M3330 3140 c-6 -11 -8 -20 -5 -20 3 0 14 9 25 20 15 15 16 20 5 20 -8 0 -19 -9 -25 -20z"/> <path d="M893 3118 c-40 -24 -42 -36 -5 -40 27 -3 27 -4 27 -72 0 -67 1 -70 27 -77 26 -7 27 -6 21 22 -4 22 -1 33 12 43 18 13 18 14 -4 25 -16 9 -21 20 -19 39 3 24 7 27 43 27 36 0 40 3 43 28 3 27 3 27 -55 26 -39 0 -68 -7 -90 -21z"/> <path d="M1084 3084 c-9 -31 -23 -58 -31 -61 -8 -3 -13 -22 -13 -49 0 -42 1 -44 30 -44 26 0 30 4 31 28 1 37 33 128 45 125 5 -1 11 -15 12 -30 2 -15 10 -32 18 -36 8 -4 14 -19 14 -32 0 -21 5 -25 30 -25 22 0 30 5 30 18 0 10 -13 29 -30 44 -16 14 -30 35 -30 46 0 11 -7 25 -15 32 -8 7 -15 19 -15 26 0 9 -11 14 -29 14 -27 0 -31 -5 -47 -56z"/> <path d="M1246 3132 c-3 -5 3 -32 12 -60 16 -49 19 -51 57 -54 32 -2 40 -7 45 -28 8 -33 50 -42 50 -11 0 12 -9 29 -20 38 -11 10 -20 28 -20 42 0 22 -2 23 -46 17 l-45 -6 3 32 c2 24 -1 33 -14 36 -9 2 -19 -1 -22 -6z"/> <path d="M1337 3134 c-9 -10 2 -24 19 -24 8 0 14 7 14 15 0 15 -21 21 -33 9z"/> <path d="M1460 3095 c0 -27 -5 -47 -14 -52 -8 -4 -16 -24 -18 -43 -2 -29 1 -36 17 -38 15 -2 23 6 32 27 9 26 16 30 54 33 38 3 44 6 47 27 2 15 -3 28 -12 33 -9 5 -16 20 -16 33 0 23 -4 25 -45 25 l-45 0 0 -45z"/> <path d="M1610 3082 c0 -32 -5 -63 -11 -69 -15 -15 -3 -33 22 -33 16 0 19 7 19 44 0 56 11 64 40 26 20 -27 29 -30 76 -30 40 0 54 4 54 14 0 8 -4 18 -10 21 -5 3 -10 24 -10 46 0 50 -24 53 -44 4 -8 -19 -19 -35 -25 -35 -5 0 -18 16 -30 35 -16 28 -27 35 -51 35 -30 0 -30 0 -30 -58z"/> <path d="M2560 3100 c-50 -16 -55 -20 -55 -46 0 -27 3 -29 48 -32 26 -2 47 1 47 6 0 6 11 13 25 16 25 6 49 45 36 57 -15 16 -50 15 -101 -1z"/> <path d="M2417 3080 c-8 -36 0 -60 18 -60 21 0 28 18 21 56 -8 42 -31 45 -39 4z"/> <path d="M3295 3101 c-6 -11 9 -23 19 -14 9 9 7 23 -3 23 -6 0 -12 -4 -16 -9z"/> <path d="M3525 3070 c-3 -5 -4 -10 -1 -10 2 0 11 -3 20 -6 11 -4 16 -1 16 10 0 18 -25 22 -35 6z"/> <path d="M3264 3035 c-9 -22 5 -38 22 -24 18 15 18 25 -1 33 -9 3 -18 -1 -21 -9z"/> <path d="M3518 3002 c-13 -2 -18 -13 -18 -37 0 -40 12 -50 40 -35 13 7 20 21 20 39 0 30 -13 40 -42 33z"/> <path d="M2009 2962 c-27 -2 -38 -9 -42 -23 -3 -10 -1 -19 4 -19 5 0 14 -11 19 -25 13 -33 38 -32 42 2 4 38 28 42 28 4 0 -35 13 -47 30 -26 9 11 8 21 -5 49 -19 39 -26 42 -76 38z"/> <path d="M2354 2959 c-13 -21 18 -59 48 -59 34 0 36 17 4 48 -26 24 -41 28 -52 11z"/> <path d="M1766 2944 c-5 -13 -22 -16 -99 -14 -116 3 -117 3 -117 -15 0 -20 41 -29 96 -21 27 3 44 2 44 -5 0 -15 43 -28 63 -17 12 6 15 16 11 32 -4 16 0 25 10 29 9 4 16 11 16 17 0 16 -17 12 -24 -6z"/> <path d="M2295 2941 c-4 -13 -12 -17 -30 -13 -18 3 -25 0 -25 -12 0 -9 6 -16 13 -16 7 0 21 -9 30 -21 10 -11 23 -19 30 -16 12 4 29 76 20 90 -8 14 -32 7 -38 -12z"/> <path d="M2145 2910 c-16 -31 -16 -32 3 -25 11 3 23 1 27 -5 3 -5 13 -10 21 -10 11 0 14 9 12 33 -4 46 -41 50 -63 7z"/> <path d="M1367 2923 c-11 -10 13 -32 29 -26 20 8 17 33 -4 33 -10 0 -22 -3 -25 -7z"/> <path d="M1473 2913 c-28 -19 -29 -40 -3 -48 11 -3 20 -11 20 -16 0 -5 14 -9 31 -9 35 0 36 23 1 28 -21 3 -32 32 -12 32 6 0 10 7 10 15 0 19 -19 18 -47 -2z"/> <path d="M1238 2903 c-41 -4 -49 -8 -54 -29 -4 -14 -1 -37 5 -51 9 -21 14 -23 26 -13 8 7 15 23 15 35 0 25 28 41 44 25 14 -14 41 -13 55 3 13 16 -5 38 -28 35 -9 -1 -37 -3 -63 -5z"/> <path d="M1790 2900 c-11 -7 -11 -11 -1 -24 10 -11 27 -14 69 -11 32 2 63 4 70 4 6 1 12 8 12 16 0 8 -6 15 -12 16 -7 0 -38 2 -69 4 -31 1 -62 -1 -69 -5z"/> <path d="M241 2830 c0 -72 17 -134 18 -69 1 20 4 49 7 65 3 18 0 36 -10 49 -14 19 -15 15 -15 -45z"/> <path d="M1056 2858 c4 -18 13 -39 20 -47 11 -13 14 -12 19 1 13 33 1 73 -22 76 -21 3 -22 0 -17 -30z"/> <path d="M1141 2850 c0 -29 1 -32 10 -17 7 11 7 23 0 35 -9 14 -10 11 -10 -18z"/> <path d="M288 2803 c-5 -71 -2 -93 13 -93 5 0 9 36 9 80 0 97 -16 106 -22 13z"/> <path d="M1370 2856 c0 -19 14 -28 34 -20 25 10 19 34 -9 34 -15 0 -25 -6 -25 -14z"/> <path d="M795 2843 c-47 -10 -51 -14 -32 -28 24 -17 57 -8 57 16 0 11 -1 18 -2 18 -2 -1 -12 -3 -23 -6z"/> <path d="M3524 2809 c-10 -17 13 -36 27 -22 12 12 4 33 -11 33 -5 0 -12 -5 -16 -11z"/> <path d="M3513 2750 c-43 -18 -20 -42 30 -33 30 6 33 13 15 31 -14 14 -15 14 -45 2z"/> <path d="M2675 2741 c-3 -5 2 -17 11 -25 19 -19 34 -12 34 15 0 20 -34 27 -45 10z"/> <path d="M2970 2730 c0 -5 -11 -20 -24 -31 -25 -22 -25 -49 -1 -49 8 0 17 9 20 20 3 11 15 20 25 20 30 0 32 16 5 34 -14 9 -25 12 -25 6z"/> <path d="M2780 2710 c0 -16 7 -20 30 -20 32 0 42 23 14 34 -29 11 -44 6 -44 -14z"/> <path d="M3385 2709 c-10 -15 3 -25 16 -12 7 7 7 13 1 17 -6 3 -14 1 -17 -5z"/> <path d="M3062 2611 l-22 -31 26 -6 c30 -8 57 17 52 46 -5 26 -33 22 -56 -9z"/> <path d="M2803 2604 c-10 -21 -9 -26 4 -31 17 -7 33 12 33 40 0 26 -23 20 -37 -9z"/> <path d="M2872 2618 c3 -7 13 -15 22 -16 12 -3 17 1 14 10 -3 7 -13 15 -22 16 -12 3 -17 -1 -14 -10z"/> <path d="M3500 2615 c0 -11 12 -15 50 -15 38 0 50 4 50 15 0 11 -12 15 -50 15 -38 0 -50 -4 -50 -15z"/> <path d="M1255 2603 c-28 -7 -45 -23 -45 -42 0 -23 47 -64 65 -57 21 8 19 23 -5 36 -26 14 -17 30 16 30 14 0 24 -6 24 -14 0 -19 39 -31 52 -18 16 16 2 42 -22 42 -11 0 -23 7 -26 15 -6 15 -21 17 -59 8z"/> <path d="M1468 2591 c-13 -11 -33 -19 -44 -18 -13 1 -19 -4 -19 -17 0 -16 8 -20 50 -22 28 -1 55 2 62 8 8 6 19 6 32 -1 11 -6 29 -11 41 -11 16 0 21 5 18 23 -2 12 -10 22 -20 22 -9 0 -25 8 -35 18 -25 22 -54 22 -85 -2z"/> <path d="M1651 2576 l-22 -24 30 -21 c24 -18 35 -20 51 -11 25 14 26 34 0 60 -26 26 -32 25 -59 -4z"/> <path d="M1777 2579 c-10 -11 -17 -30 -15 -42 2 -18 12 -23 53 -29 37 -5 54 -4 64 7 16 16 10 20 -34 27 -13 2 -21 12 -23 31 -4 31 -20 34 -45 6z"/> <path d="M1970 2591 c0 -5 -9 -11 -20 -14 -24 -6 -27 -39 -5 -57 13 -11 17 -8 28 19 6 17 15 31 19 31 4 0 8 7 8 15 0 8 -7 15 -15 15 -8 0 -15 -4 -15 -9z"/> <path d="M2146 2591 c-3 -4 -28 -11 -56 -13 -28 -3 -56 -10 -61 -15 -14 -14 1 -45 18 -39 8 3 35 6 59 6 32 0 44 4 44 15 0 8 9 19 20 25 11 6 18 15 15 21 -8 11 -32 12 -39 0z"/> <path d="M2193 2549 c-7 -18 -11 -34 -9 -36 1 -2 17 4 35 13 36 18 39 47 6 52 -15 2 -24 -6 -32 -29z"/> <path d="M2912 2567 c-17 -21 -5 -27 55 -27 40 0 53 4 53 15 0 8 -8 15 -19 15 -10 0 -32 3 -48 6 -19 4 -33 1 -41 -9z"/> <path d="M3525 2561 c-3 -5 0 -22 7 -36 11 -24 13 -25 19 -8 12 30 10 53 -5 53 -8 0 -17 -4 -21 -9z"/> <path d="M2740 2531 c0 -5 -22 -12 -50 -16 -27 -4 -52 -11 -55 -16 -8 -11 40 -23 61 -15 10 4 25 -1 35 -10 13 -12 22 -13 37 -5 23 12 37 45 27 61 -8 12 -55 13 -55 1z"/> <path d="M2847 2533 c-4 -3 -7 -19 -7 -35 0 -36 25 -38 34 -3 9 36 -7 58 -27 38z"/> <path d="M234 2496 c-4 -16 -2 -32 4 -38 8 -8 13 -3 18 16 4 16 2 32 -4 38 -8 8 -13 3 -18 -16z"/> <path d="M293 2504 c-8 -20 9 -36 30 -28 21 8 22 30 1 38 -22 8 -24 8 -31 -10z"/> <path d="M1772 2460 c-17 -16 -20 -27 -15 -57 6 -36 32 -73 51 -73 5 0 17 9 27 20 12 13 25 18 38 14 14 -4 26 1 39 17 l18 24 6 -22 c8 -28 35 -30 57 -5 23 25 21 39 -8 58 -26 17 -45 12 -45 -13 0 -11 -5 -13 -17 -8 -10 4 -29 8 -43 9 -16 1 -26 8 -29 21 -7 39 -45 46 -79 15z m78 -60 c0 -21 -34 -45 -50 -35 -6 3 -10 17 -10 31 0 20 5 24 30 24 23 0 30 -4 30 -20z"/> <path d="M2028 2443 c-8 -59 4 -79 50 -87 81 -13 99 23 27 55 -40 18 -44 23 -39 44 5 20 2 25 -14 25 -15 0 -21 -8 -24 -37z"/> <path d="M1628 2450 c-15 -9 -14 -14 13 -42 34 -38 33 -54 -5 -50 -20 3 -27 0 -24 -10 5 -12 46 -15 75 -4 8 3 13 22 13 50 0 35 -5 48 -19 56 -24 12 -31 12 -53 0z"/> <path d="M1250 2435 c0 -8 7 -15 15 -15 8 0 15 7 15 15 0 8 -7 15 -15 15 -8 0 -15 -7 -15 -15z"/> <path d="M3500 2436 c0 -23 20 -70 33 -78 33 -20 37 45 5 73 -28 22 -38 24 -38 5z"/> <path d="M291 2423 c-12 -23 -3 -65 13 -60 14 5 20 57 8 69 -7 7 -14 3 -21 -9z"/> <path d="M1493 2418 c-4 -7 -6 -22 -5 -34 3 -17 -4 -22 -34 -27 -48 -8 -57 -2 -49 35 6 25 4 29 -12 26 -15 -3 -18 -13 -18 -58 l0 -55 60 0 c56 0 60 1 58 23 -3 27 17 29 52 6 23 -15 25 -15 31 1 4 10 -1 22 -15 31 -11 8 -21 23 -21 33 0 11 -7 22 -16 25 -21 8 -22 8 -31 -6z"/> <path d="M2814 2416 c-7 -20 2 -46 16 -46 13 0 13 47 0 55 -6 3 -13 -1 -16 -9z"/> <path d="M1582 2398 c2 -13 8 -23 13 -23 6 0 11 10 13 23 2 15 -2 22 -13 22 -11 0 -15 -7 -13 -22z"/> <path d="M1110 2380 c0 -5 9 -10 19 -10 11 0 23 5 26 10 4 6 -5 10 -19 10 -14 0 -26 -4 -26 -10z"/> <path d="M2510 2382 c0 -14 11 -21 26 -15 21 8 17 23 -6 23 -11 0 -20 -4 -20 -8z"/> <path d="M175 2361 c-4 -7 -4 -24 0 -39 l7 -27 9 23 c10 27 -3 63 -16 43z"/> <path d="M320 2346 c0 -9 7 -16 16 -16 17 0 14 22 -4 28 -7 2 -12 -3 -12 -12z"/> <path d="M2510 2310 c0 -9 -7 -23 -15 -30 -8 -7 -15 -21 -15 -31 0 -11 7 -19 15 -19 10 0 15 10 15 31 0 29 2 30 30 24 32 -7 60 7 60 30 0 9 -15 13 -45 13 -37 0 -45 -3 -45 -18z"/> <path d="M317 2304 c-4 -4 -7 -16 -7 -27 0 -10 -12 -33 -26 -50 -19 -23 -24 -37 -19 -56 3 -14 6 -41 5 -59 -1 -31 1 -32 22 -21 32 17 57 51 58 77 0 25 -18 30 -26 7 -10 -24 -34 -18 -34 8 0 25 28 57 49 57 8 0 11 12 9 32 -3 31 -17 45 -31 32z"/> <path d="M2533 2233 c-7 -2 -13 -15 -13 -28 0 -31 16 -42 73 -50 52 -8 66 8 22 25 -14 5 -30 21 -37 35 -11 25 -21 28 -45 18z"/> <path d="M3467 2219 c-14 -16 -16 -24 -6 -35 18 -22 24 -17 26 21 2 19 2 35 0 35 -1 0 -11 -9 -20 -21z"/> <path d="M180 2223 c-11 -192 -11 -217 5 -293 9 -45 14 -93 10 -107 -3 -15 1 -41 14 -66 10 -23 22 -69 25 -101 4 -33 12 -66 18 -73 8 -10 8 -17 0 -25 -7 -7 -12 -26 -11 -42 0 -17 3 -24 6 -16 3 8 14 26 24 38 18 23 18 25 -2 52 -17 22 -19 32 -10 48 8 14 8 48 2 109 -5 48 -8 108 -7 133 2 28 -3 52 -13 63 -12 15 -13 20 -2 26 16 10 6 31 -14 31 -19 0 -27 48 -24 142 3 58 0 83 -9 86 -6 2 -12 0 -12 -5z"/> <path d="M2336 2194 c-10 -25 -7 -37 15 -73 l20 -33 24 22 c27 25 38 57 23 66 -6 4 -15 -1 -20 -10 -14 -25 -38 -20 -38 8 0 30 -15 42 -24 20z"/> <path d="M1033 2144 c-4 -10 1 -22 12 -30 9 -7 15 -20 12 -28 -5 -12 -1 -13 16 -7 29 11 33 34 10 60 -21 25 -41 27 -50 5z"/> <path d="M2180 2135 c0 -8 7 -15 15 -15 8 0 15 7 15 15 0 8 -7 15 -15 15 -8 0 -15 -7 -15 -15z"/> <path d="M3530 2121 c0 -25 4 -31 21 -31 16 0 20 5 17 27 -2 17 -10 29 -20 31 -14 3 -18 -3 -18 -27z"/> <path d="M1374 2096 c-10 -25 12 -66 35 -66 19 0 31 18 31 46 0 8 -8 14 -18 14 -10 0 -23 5 -30 12 -9 9 -13 7 -18 -6z"/> <path d="M1718 2093 c-24 -6 -23 -11 8 -40 21 -19 35 -23 73 -21 47 3 60 20 19 26 -12 2 -27 10 -33 17 -12 16 -44 24 -67 18z"/> <path d="M1970 2079 c-7 -13 -19 -27 -26 -31 -15 -10 -6 -48 11 -48 7 0 15 7 19 15 3 8 14 15 25 15 31 0 34 18 8 46 l-25 27 -12 -24z"/> <path d="M2680 2080 c-30 -23 -60 -26 -60 -5 0 8 -4 15 -10 15 -15 0 -12 -19 4 -36 21 -20 59 -17 79 7 26 29 17 42 -13 19z"/> <path d="M1130 2074 c0 -17 22 -14 28 4 2 7 -3 12 -12 12 -9 0 -16 -7 -16 -16z"/> <path d="M2030 2075 c0 -8 7 -15 15 -15 8 0 15 7 15 15 0 8 -7 15 -15 15 -8 0 -15 -7 -15 -15z"/> <path d="M327 2073 c-13 -12 -7 -43 7 -43 19 0 28 14 20 34 -7 17 -16 20 -27 9z"/> <path d="M1216 2061 c-12 -13 -14 -21 -6 -26 18 -11 40 3 40 25 0 25 -12 26 -34 1z"/> <path d="M2169 2045 c-9 -19 -13 -35 -8 -35 5 0 9 4 9 9 0 5 9 11 20 14 12 3 20 14 20 26 0 32 -23 24 -41 -14z"/> <path d="M2250 2050 c0 -19 3 -21 12 -12 9 9 9 15 0 24 -9 9 -12 7 -12 -12z"/> <path d="M2842 2038 c-5 -7 -13 -23 -16 -35 -6 -20 -5 -21 18 -10 17 8 26 20 26 35 0 24 -12 29 -28 10z"/> <path d="M1160 2025 c-9 -11 -10 -19 -2 -27 14 -14 32 -1 32 23 0 23 -13 25 -30 4z"/> <path d="M950 1998 c0 -17 -6 -39 -14 -47 -18 -21 -28 -92 -16 -111 9 -13 11 -13 20 0 5 8 10 27 10 43 0 16 5 27 14 27 13 0 26 -41 26 -85 0 -24 24 -40 42 -29 6 4 8 26 5 52 -5 42 -20 65 -51 75 -6 2 -10 25 -8 55 2 41 -1 52 -13 52 -10 0 -15 -10 -15 -32z"/> <path d="M1507 2012 c-10 -10 -17 -24 -17 -30 0 -17 -27 -15 -34 3 -7 19 -56 20 -56 1 0 -8 10 -16 23 -20 13 -3 36 -17 51 -31 29 -27 66 -30 74 -7 2 8 -7 12 -27 12 -39 0 -39 14 -1 47 17 13 30 29 30 34 0 15 -26 10 -43 -9z"/> <path d="M2208 2006 c-3 -13 1 -31 7 -40 11 -14 13 -12 19 15 9 44 8 49 -8 49 -7 0 -16 -11 -18 -24z"/> <path d="M3440 2015 c0 -8 7 -15 15 -15 8 0 15 7 15 15 0 8 -7 15 -15 15 -8 0 -15 -7 -15 -15z"/> <path d="M3537 2003 c-13 -13 -7 -53 8 -53 10 0 15 10 15 30 0 29 -9 38 -23 23z"/> <path d="M306 1976 c-18 -29 -6 -42 24 -26 23 12 27 50 6 50 -7 0 -21 -11 -30 -24z"/> <path d="M1220 1980 c0 -24 37 -63 50 -55 16 10 11 41 -8 58 -25 23 -42 21 -42 -3z"/> <path d="M1576 1975 c-16 -24 -16 -25 9 -25 18 0 25 5 25 19 0 31 -16 33 -34 6z"/> <path d="M1795 1990 c-3 -5 4 -19 15 -30 11 -11 25 -18 30 -15 16 10 11 34 -9 45 -24 12 -28 13 -36 0z"/> <path d="M2103 1993 c-7 -2 -13 -15 -13 -28 0 -12 -7 -25 -15 -29 -8 -3 -15 -10 -15 -16 0 -5 7 -10 15 -10 8 0 15 7 15 15 0 8 7 15 16 15 18 0 43 27 44 48 0 12 -24 15 -47 5z"/> <path d="M1693 1964 c-8 -20 17 -36 34 -22 10 8 10 14 2 24 -15 18 -28 18 -36 -2z"/> <path d="M1905 1947 c-29 -17 -75 -59 -75 -69 0 -30 76 16 99 60 13 24 7 26 -24 9z"/> <path d="M2240 1926 c0 -9 7 -16 16 -16 17 0 14 22 -4 28 -7 2 -12 -3 -12 -12z"/> <path d="M623 1905 c-6 -18 23 -55 44 -55 18 0 17 19 -2 26 -8 4 -15 15 -15 25 0 23 -18 25 -27 4z"/> <path d="M1300 1894 c0 -12 9 -14 42 -12 59 4 63 28 4 28 -35 0 -46 -4 -46 -16z"/> <path d="M1427 1886 c-17 -26 -13 -36 15 -36 12 0 18 7 18 24 0 35 -15 40 -33 12z"/> <path d="M1570 1900 c-12 -7 -11 -10 5 -16 11 -4 33 -20 49 -36 29 -28 79 -38 90 -19 6 8 -69 51 -89 51 -5 0 -16 7 -24 14 -11 10 -21 12 -31 6z"/> <path d="M2180 1894 c0 -17 22 -14 28 4 2 7 -3 12 -12 12 -9 0 -16 -7 -16 -16z"/> <path d="M2263 1883 c-25 -17 -32 -63 -10 -63 20 0 47 33 47 58 0 26 -7 27 -37 5z"/> <path d="M2081 1866 c-12 -12 -21 -26 -21 -30 0 -9 42 -45 53 -46 13 0 7 28 -8 34 -27 10 -16 26 19 26 19 0 38 5 41 10 3 6 5 10 3 10 -2 0 -17 4 -35 9 -26 8 -35 6 -52 -13z"/> <path d="M324 1865 c-3 -8 -3 -19 1 -25 11 -18 25 -11 25 15 0 27 -17 34 -26 10z"/> <path d="M1158 1854 c-12 -26 -4 -54 19 -61 14 -5 24 36 16 65 -7 29 -21 28 -35 -4z"/> <path d="M2387 1853 c-15 -14 -6 -33 16 -33 30 0 40 10 26 27 -12 14 -32 17 -42 6z"/> <path d="M1490 1819 c0 -22 -51 -59 -80 -59 -16 0 -33 -6 -37 -14 -4 -7 -32 -27 -62 -42 -67 -36 -76 -54 -27 -54 24 0 36 -5 36 -14 0 -16 21 -26 56 -26 14 0 24 6 24 14 0 10 14 16 43 18 51 4 52 22 1 26 -24 2 -40 -2 -47 -12 -8 -10 -20 -14 -34 -10 l-22 6 26 35 c22 28 32 34 53 30 26 -6 60 20 73 56 4 10 17 17 32 17 31 0 33 25 3 34 -32 8 -38 7 -38 -5z"/> <path d="M1759 1822 c-9 -2 -21 -14 -27 -27 -11 -24 -25 -29 -65 -26 -22 3 -35 -28 -16 -40 21 -13 61 1 92 33 16 15 37 29 48 29 38 3 42 4 46 15 4 12 -47 22 -78 16z"/> <path d="M2177 1824 c-14 -15 -6 -34 14 -34 14 0 19 5 17 17 -3 18 -20 27 -31 17z"/> <path d="M1377 1813 c-15 -14 -6 -24 20 -21 34 4 43 28 11 28 -14 0 -28 -3 -31 -7z"/> <path d="M1596 1804 c-17 -17 -20 -27 -9 -37 5 -6 53 37 53 49 0 10 -30 3 -44 -12z"/> <path d="M1936 1812 c-3 -5 9 -19 26 -32 30 -22 30 -22 56 -3 44 33 39 43 -22 43 -30 0 -57 -4 -60 -8z"/> <path d="M2300 1806 c0 -8 -10 -16 -22 -18 -27 -4 -31 -31 -5 -36 12 -3 20 4 24 18 4 16 12 20 32 18 18 -2 27 2 29 15 3 13 -3 17 -27 17 -20 0 -31 -5 -31 -14z"/> <path d="M325 1781 c-7 -12 12 -24 25 -16 11 7 4 25 -10 25 -5 0 -11 -4 -15 -9z"/> <path d="M950 1775 c0 -8 7 -15 15 -15 11 0 15 -11 15 -39 0 -42 28 -103 45 -98 6 2 11 26 13 53 2 45 0 51 -28 69 -16 11 -30 26 -30 33 0 6 -7 12 -15 12 -8 0 -15 -7 -15 -15z"/> <path d="M741 1756 c-11 -13 -9 -17 15 -26 34 -13 57 -6 52 17 -4 23 -51 29 -67 9z"/> <path d="M287 1754 c-10 -10 5 -68 21 -80 9 -7 13 -19 9 -33 -4 -15 1 -29 15 -43 24 -24 18 -64 -13 -73 -14 -5 -18 -12 -14 -23 4 -10 10 -25 12 -34 3 -10 9 -18 14 -18 5 0 9 -7 9 -16 0 -29 49 -66 78 -59 22 5 24 10 19 40 -5 28 -1 38 16 50 24 17 21 23 -14 27 -22 3 -24 0 -24 -42 0 -34 -4 -45 -17 -48 -15 -3 -18 4 -18 36 0 31 -4 41 -20 45 -30 8 -27 47 4 47 13 0 27 -6 30 -12 3 -9 10 -7 21 7 15 19 15 20 -5 23 -12 2 -25 14 -30 28 -5 13 -15 24 -21 24 -7 0 -10 12 -7 31 4 22 -1 34 -15 44 -10 7 -16 18 -13 23 3 6 2 22 -4 36 -9 25 -21 32 -33 20z"/> <path d="M1100 1711 c0 -47 12 -72 24 -52 4 5 9 30 12 55 6 42 5 46 -15 46 -19 0 -21 -6 -21 -49z"/> <path d="M2060 1746 c0 -14 37 -29 52 -20 20 13 7 34 -22 34 -19 0 -30 -5 -30 -14z"/> <path d="M1533 1714 c-13 -14 -23 -30 -23 -35 0 -16 40 -9 62 11 17 16 19 22 8 35 -17 20 -21 19 -47 -11z"/> <path d="M1793 1732 c-36 -2 -53 -7 -53 -16 0 -13 74 -26 180 -30 73 -4 109 -16 112 -39 5 -31 28 -34 28 -3 0 16 -6 26 -15 26 -9 0 -15 9 -15 25 0 17 -6 26 -22 29 -34 7 -155 11 -215 8z"/> <path d="M816 1721 c-8 -13 20 -45 32 -37 20 12 14 46 -7 46 -11 0 -22 -4 -25 -9z"/> <path d="M3410 1674 c-6 -16 -15 -39 -22 -51 -6 -12 -7 -30 -3 -40 7 -17 8 -16 17 4 6 12 19 24 30 26 17 5 19 11 13 39 -10 48 -23 56 -35 22z"/> <path d="M850 1662 c0 -16 52 -53 66 -48 21 8 17 26 -6 26 -11 0 -20 7 -20 15 0 8 -9 15 -20 15 -11 0 -20 -4 -20 -8z"/> <path d="M1175 1645 c-24 -20 -26 -25 -13 -30 17 -7 58 26 58 45 0 16 -12 11 -45 -15z"/> <path d="M1735 1659 c-10 -15 3 -25 16 -12 7 7 7 13 1 17 -6 3 -14 1 -17 -5z"/> <path d="M1806 1648 c-22 -31 -10 -40 18 -15 14 12 22 25 20 29 -9 14 -22 9 -38 -14z"/> <path d="M1073 1633 c-4 -10 -13 -23 -21 -29 -11 -8 -12 -13 -3 -18 6 -4 14 0 17 8 3 9 12 16 20 16 8 0 14 9 14 20 0 25 -18 26 -27 3z"/> <path d="M1950 1631 c0 -11 4 -21 9 -21 18 0 21 18 6 30 -13 10 -15 9 -15 -9z"/> <path d="M3502 1611 c3 -22 7 -26 31 -23 17 2 29 -3 33 -13 12 -31 34 -16 34 24 l0 39 -51 0 c-48 0 -50 -1 -47 -27z"/> <path d="M1862 1608 c-17 -17 -15 -58 2 -58 17 0 49 47 41 60 -8 14 -29 12 -43 -2z"/> <path d="M950 1594 c0 -20 28 -43 53 -44 23 0 21 9 -9 36 -29 28 -44 30 -44 8z"/> <path d="M1193 1589 c-18 -12 -33 -24 -33 -29 0 -4 -30 -10 -67 -13 -37 -4 -71 -11 -77 -17 -5 -5 -23 -10 -38 -10 -30 0 -39 -24 -13 -34 24 -9 17 -23 -20 -40 -36 -17 -46 -40 -21 -49 9 -4 23 8 37 28 13 19 30 36 39 39 8 4 21 9 28 12 9 4 12 -8 12 -47 0 -45 4 -56 30 -81 17 -15 30 -35 30 -43 0 -21 41 -76 52 -69 11 7 10 54 -2 54 -5 0 -10 7 -10 16 0 9 -9 27 -20 41 -11 14 -20 38 -20 52 0 15 -7 36 -15 47 -8 10 -15 31 -15 47 0 26 2 27 45 27 31 0 47 5 51 15 4 10 21 15 55 15 38 0 51 4 59 20 6 11 8 25 5 30 -10 17 -58 11 -92 -11z"/> <path d="M1716 1585 c-16 -25 -20 -47 -10 -57 10 -11 54 39 54 61 0 28 -24 27 -44 -4z"/> <path d="M2006 1602 c-3 -6 -1 -14 5 -17 15 -10 25 3 12 16 -7 7 -13 7 -17 1z"/> <path d="M1947 1583 c-4 -3 -7 -19 -7 -34 0 -21 -5 -28 -22 -31 -26 -3 -30 -21 -6 -26 9 -2 28 8 42 21 23 21 25 28 16 51 -10 28 -13 30 -23 19z"/> <path d="M3333 1536 c-13 -13 -23 -31 -23 -40 0 -22 29 -20 37 2 4 9 12 21 20 25 17 10 17 37 1 37 -7 0 -23 -11 -35 -24z"/> <path d="M1790 1539 c0 -11 40 -48 53 -49 12 0 8 19 -10 40 -19 22 -43 27 -43 9z"/> <path d="M3412 1538 c6 -18 28 -21 28 -4 0 9 -7 16 -16 16 -9 0 -14 -5 -12 -12z"/> <path d="M810 1510 c-33 -31 -34 -33 -15 -46 24 -18 54 -18 61 0 3 7 1 28 -3 46 l-9 32 -34 -32z"/> <path d="M737 1514 c-9 -10 2 -24 19 -24 8 0 14 7 14 15 0 15 -21 21 -33 9z"/> <path d="M3506 1511 c-3 -4 5 -18 18 -30 l24 -23 7 22 c9 30 -33 57 -49 31z"/> <path d="M2030 1501 c0 -18 18 -21 30 -6 10 13 9 15 -9 15 -11 0 -21 -4 -21 -9z"/> <path d="M611 1492 c-22 -8 -51 -35 -51 -49 0 -18 27 -16 34 2 3 8 17 15 31 15 15 0 25 6 25 14 0 16 -19 25 -39 18z"/> <path d="M1750 1480 c0 -11 7 -23 16 -27 20 -8 36 17 22 34 -16 20 -38 15 -38 -7z"/> <path d="M253 1464 c-3 -8 -1 -20 6 -27 6 -6 11 -20 11 -31 0 -17 2 -18 10 -6 5 8 5 19 0 25 -5 6 -7 21 -3 33 6 25 -14 31 -24 6z"/> <path d="M3347 1467 c-3 -7 -3 -25 0 -40 6 -29 30 -36 39 -12 4 10 14 13 29 9 26 -6 42 21 24 42 -15 18 -85 18 -92 1z"/> <path d="M475 1429 c-4 -23 -12 -49 -19 -57 -19 -24 -52 -56 -81 -78 -23 -18 -26 -24 -16 -41 10 -20 65 -38 82 -27 17 10 9 24 -15 24 -32 0 -40 14 -20 35 12 12 19 13 30 4 8 -6 14 -18 14 -26 0 -26 30 -26 55 1 26 28 32 46 15 46 -5 0 -10 -7 -10 -15 0 -24 -37 -18 -44 8 -4 15 0 27 13 37 23 19 35 105 16 120 -10 8 -15 1 -20 -31z"/> <path d="M692 1435 c-24 -24 -22 -45 3 -45 16 0 75 48 75 61 0 18 -56 6 -78 -16z"/> <path d="M1160 1425 c0 -29 3 -36 18 -33 11 2 17 13 17 33 0 20 -6 31 -17 33 -15 3 -18 -4 -18 -33z"/> <path d="M3280 1412 c0 -4 5 -13 10 -18 14 -14 3 -42 -21 -55 -15 -7 -18 -16 -13 -37 4 -15 8 -29 10 -31 8 -9 34 23 34 41 0 11 9 22 20 25 29 8 36 41 11 64 -20 19 -51 26 -51 11z"/> <path d="M591 1397 c-14 -18 -4 -27 31 -27 32 0 37 15 9 30 -25 13 -26 13 -40 -3z"/> <path d="M1300 1370 c-19 -12 -5 -26 38 -35 27 -6 32 -4 32 13 0 29 -40 41 -70 22z"/> <path d="M3387 1374 c-12 -13 -8 -46 6 -40 6 3 20 9 30 12 10 4 16 12 14 18 -4 13 -40 20 -50 10z"/> <path d="M3507 1373 c-4 -3 -7 -26 -7 -50 0 -32 4 -43 15 -43 9 0 18 7 21 15 4 8 12 15 19 15 28 0 27 23 -1 46 -31 25 -37 27 -47 17z"/> <path d="M527 1364 c-9 -9 4 -34 18 -34 14 0 27 25 18 34 -4 3 -12 6 -18 6 -6 0 -14 -3 -18 -6z"/> <path d="M955 1359 c-4 -6 -3 -15 3 -21 6 -6 11 -4 15 6 7 18 -9 31 -18 15z"/> <path d="M1192 1354 c4 -21 22 -23 26 -1 2 10 -3 17 -13 17 -10 0 -15 -6 -13 -16z"/> <path d="M180 1330 c0 -32 11 -38 28 -17 7 8 7 17 -2 30 -19 25 -26 21 -26 -13z"/> <path d="M876 1324 c-15 -19 -26 -37 -24 -39 1 -2 23 -5 48 -7 54 -4 64 17 28 57 l-23 25 -29 -36z"/> <path d="M327 1324 c-4 -4 -7 -16 -7 -26 0 -11 -7 -18 -20 -18 -16 0 -20 -7 -20 -35 0 -23 7 -41 20 -52 11 -10 20 -23 20 -29 0 -17 28 -22 84 -15 67 8 74 31 9 31 -64 0 -93 20 -93 66 0 24 5 34 15 34 8 0 15 7 15 15 0 8 0 18 1 22 1 10 -16 15 -24 7z"/> <path d="M1272 1304 c5 -25 35 -41 49 -27 9 9 9 16 -1 28 -17 21 -52 20 -48 -1z"/> <path d="M3380 1305 c0 -9 -7 -18 -15 -21 -19 -8 -20 -34 -2 -34 21 0 50 37 44 55 -8 20 -27 20 -27 0z"/> <path d="M200 1036 c0 -159 -4 -257 -10 -261 -6 -4 -9 -76 -8 -188 1 -139 3 -166 8 -112 4 39 8 100 9 138 0 37 5 67 10 67 15 0 18 -21 20 -157 2 -130 2 -131 -21 -135 -26 -3 -35 -31 -20 -62 6 -11 13 -82 16 -156 3 -82 9 -136 15 -138 6 -2 11 -10 11 -18 0 -21 28 -17 40 6 9 16 8 20 -5 20 -10 0 -15 7 -13 17 4 23 38 30 38 9 0 -18 21 -21 37 -5 8 8 13 8 17 0 4 -6 20 -11 36 -11 31 0 47 -14 29 -26 -6 -4 -36 -7 -65 -8 -30 0 -54 -4 -54 -8 0 -4 62 -8 138 -7 106 1 129 3 102 11 -19 5 -48 9 -63 8 -19 0 -27 4 -24 12 2 7 14 12 26 11 12 -2 21 3 21 11 0 10 -18 14 -67 15 -37 1 -70 5 -74 9 -4 4 -5 22 -2 40 4 23 14 37 34 48 22 11 29 22 29 42 0 31 43 77 64 69 7 -3 13 -24 14 -47 2 -38 0 -41 -19 -35 -15 5 -19 4 -15 -4 4 -6 13 -11 21 -11 7 0 15 -7 19 -15 3 -8 14 -15 25 -15 29 0 34 -16 11 -38 -20 -19 -20 -19 26 -65 47 -48 87 -60 112 -35 21 21 13 26 -28 21 -35 -5 -40 -3 -40 15 0 14 -7 22 -22 24 -15 2 -24 11 -26 24 -3 18 4 23 33 28 39 8 59 1 31 -10 -9 -3 -16 -12 -16 -18 0 -9 17 -12 53 -12 47 2 52 4 51 24 0 16 5 22 21 22 13 0 27 10 35 26 8 14 22 30 32 35 10 5 18 19 18 29 0 11 5 20 10 20 6 0 10 -9 10 -20 0 -26 15 -25 35 3 12 15 19 18 22 10 7 -20 23 -15 23 7 0 14 -6 19 -21 17 -29 -3 -36 19 -10 28 25 8 26 20 6 59 -10 19 -13 41 -9 62 4 22 2 34 -5 34 -6 0 -11 12 -11 26 0 21 3 25 18 19 9 -4 25 -10 35 -12 10 -3 17 -15 17 -29 0 -28 27 -33 37 -7 7 19 -41 63 -70 63 -12 0 -17 6 -15 18 2 11 13 17 32 17 20 0 31 6 37 20 11 30 11 35 -5 35 -8 0 -17 4 -20 9 -10 16 5 41 25 41 25 0 34 23 19 49 -15 30 -36 26 -49 -9 -8 -25 -15 -30 -41 -30 -30 0 -31 2 -25 29 3 16 2 32 -3 35 -8 5 -5 42 10 106 2 8 -5 16 -14 18 -11 2 -18 -2 -18 -12 0 -9 -4 -16 -9 -16 -6 0 -11 -15 -13 -32 -3 -37 -35 -50 -58 -23 -19 22 -30 18 -30 -11 0 -15 -8 -33 -17 -40 -17 -12 -17 -14 0 -31 12 -12 33 -18 70 -18 50 0 52 -1 55 -29 2 -16 -2 -32 -8 -36 -15 -9 -3 -33 14 -27 8 3 9 -16 3 -72 -5 -42 -8 -95 -9 -118 0 -33 -5 -44 -20 -49 -15 -4 -18 -12 -13 -34 4 -18 2 -31 -7 -37 -15 -9 -36 -40 -44 -65 -4 -10 -16 -18 -29 -18 -12 0 -30 -10 -38 -23 l-16 -22 -7 22 c-4 15 -14 23 -28 23 -29 0 -69 42 -60 63 4 11 0 19 -12 24 -24 9 -49 33 -57 56 -4 9 -13 17 -21 17 -8 0 -26 5 -40 11 -21 10 -24 18 -24 58 0 32 5 51 18 64 20 18 17 47 -5 47 -8 0 -16 -9 -20 -19 -3 -10 -15 -21 -27 -24 -15 -4 -19 -11 -15 -27 3 -13 -1 -24 -13 -30 -25 -13 -30 -4 -30 62 l0 58 40 0 c26 0 42 5 49 17 8 16 12 16 46 -2 34 -19 37 -19 46 -3 6 10 19 18 31 18 11 0 27 8 34 18 13 16 15 16 25 0 16 -27 32 -22 25 8 -5 20 -3 27 14 31 33 9 26 48 -14 72 -26 17 -43 20 -74 15 -34 -5 -40 -3 -45 15 -4 18 -10 21 -34 15 -15 -4 -32 -10 -36 -14 -17 -15 -2 -45 30 -60 34 -16 57 -45 48 -60 -4 -6 -24 -10 -46 -10 -35 0 -40 3 -45 28 -3 16 -19 36 -39 49 -25 17 -34 31 -37 55 -3 33 -3 33 -16 10 -17 -30 -7 -79 19 -87 10 -4 19 -14 19 -24 0 -10 10 -26 23 -34 22 -16 21 -16 -16 -16 -30 -1 -40 -6 -44 -21 -3 -11 -14 -20 -24 -20 -17 0 -19 -6 -15 -53 2 -28 4 -62 5 -74 1 -17 7 -23 25 -23 14 0 41 -16 66 -39 33 -30 40 -44 35 -60 -8 -27 -18 -26 -49 2 -18 16 -23 30 -19 45 4 16 1 22 -11 22 -12 0 -16 -10 -16 -40 0 -33 4 -42 24 -49 30 -12 42 -42 22 -57 -9 -6 -16 -21 -16 -33 0 -12 -6 -21 -15 -21 -10 0 -15 -11 -15 -35 0 -19 -4 -35 -10 -35 -12 0 -41 29 -56 56 -11 20 -12 140 0 151 3 3 -2 15 -11 25 -14 16 -15 23 -5 39 31 49 36 424 7 445 -14 10 -16 43 -14 225 0 140 5 219 12 228 9 10 7 16 -8 27 -10 8 -22 14 -27 14 -4 0 -8 -114 -8 -254z m390 -369 c0 -7 -11 -23 -25 -35 l-25 -22 6 27 c4 16 9 31 11 36 7 12 33 8 33 -6z m324 -85 c2 -4 0 -14 -5 -22 -8 -13 -10 -13 -18 0 -10 15 -6 30 9 30 5 0 11 -4 14 -8z"/> <path d="M1372 1263 c3 -15 12 -17 48 -15 51 4 55 6 45 21 -3 6 -26 11 -51 11 -38 0 -45 -3 -42 -17z"/> <path d="M887 1248 c-15 -23 -15 -23 -30 -3 -15 19 -16 19 -23 1 -10 -27 8 -51 44 -54 38 -4 59 26 42 58 -13 25 -14 25 -33 -2z"/> <path d="M1196 1254 c-7 -18 0 -34 15 -34 12 0 12 37 0 44 -5 3 -12 -1 -15 -10z"/> <path d="M3285 1240 c-3 -5 3 -10 14 -10 12 0 21 5 21 10 0 6 -6 10 -14 10 -8 0 -18 -4 -21 -10z"/> <path d="M1494 1224 c3 -9 6 -19 6 -22 0 -4 16 -7 35 -7 19 0 35 5 35 11 0 7 -10 9 -25 6 -17 -3 -27 1 -31 12 -3 9 -11 16 -16 16 -6 0 -7 -7 -4 -16z"/> <path d="M473 1215 c-7 -20 2 -29 21 -22 9 4 13 13 10 22 -8 19 -23 19 -31 0z"/> <path d="M3340 1195 c0 -18 6 -29 20 -32 11 -3 20 -12 20 -19 0 -8 5 -14 10 -14 6 0 10 7 10 15 0 8 -5 15 -10 15 -6 0 -9 12 -8 28 2 21 -2 28 -19 30 -19 3 -23 -1 -23 -23z"/> <path d="M3530 1205 c0 -10 11 -15 35 -15 24 0 35 5 35 15 0 10 -11 15 -35 15 -24 0 -35 -5 -35 -15z"/> <path d="M1184 1190 c-27 -11 -37 -50 -24 -86 13 -32 27 -22 32 21 4 38 31 44 46 10 14 -30 42 -33 42 -4 0 12 -8 23 -20 26 -11 3 -20 14 -20 24 0 20 -20 24 -56 9z"/> <path d="M800 1175 c0 -8 7 -15 15 -15 8 0 15 7 15 15 0 8 -7 15 -15 15 -8 0 -15 -7 -15 -15z"/> <path d="M3260 1175 c0 -10 10 -15 30 -15 35 0 40 15 8 24 -34 9 -38 8 -38 -9z"/> <path d="M3410 1180 c0 -5 7 -10 15 -10 8 0 15 5 15 10 0 6 -7 10 -15 10 -8 0 -15 -4 -15 -10z"/> <path d="M518 1174 c-5 -4 -8 -15 -8 -25 0 -12 -10 -21 -26 -25 l-26 -7 33 -14 c31 -13 32 -16 17 -27 -11 -8 -42 -12 -84 -11 -62 3 -69 1 -93 -25 -14 -15 -32 -29 -40 -32 -9 -2 -13 -24 -15 -71 0 -37 2 -67 6 -67 3 0 15 -14 26 -32 l21 -32 12 28 c11 24 11 33 -4 58 -20 35 -22 73 -4 94 30 36 39 44 51 44 9 0 12 -9 8 -25 -2 -15 0 -25 7 -25 16 0 13 -47 -5 -76 -12 -17 -15 -36 -10 -64 6 -39 5 -41 -23 -46 -33 -7 -33 -34 0 -34 10 0 19 -6 19 -14 0 -20 19 -31 32 -18 7 7 6 17 -5 32 -14 20 -13 25 6 55 27 42 47 45 47 7 0 -23 4 -28 23 -28 17 1 23 -5 25 -25 4 -33 27 -40 82 -26 39 11 43 10 60 -13 24 -32 36 -19 23 25 -11 34 -10 35 16 35 15 0 31 4 37 9 5 5 23 11 39 13 36 4 40 22 5 24 -14 1 -29 3 -35 4 -5 2 -18 0 -28 -5 -23 -10 -33 1 -18 19 11 13 10 33 -6 89 -2 9 -10 17 -18 17 -8 0 -15 12 -17 28 -2 21 -8 26 -23 24 -11 -2 -25 -10 -31 -18 -15 -18 -34 -18 -34 1 0 8 -9 15 -20 15 -15 0 -20 -7 -20 -26 0 -25 -2 -26 -37 -19 -21 4 -41 9 -45 11 -12 8 -9 38 5 58 12 16 16 17 35 5 17 -11 25 -11 48 1 35 19 40 36 21 74 -9 17 -17 39 -19 49 -2 11 -6 15 -10 11z m-48 -264 c0 -16 -18 -30 -41 -30 -16 0 -10 32 8 46 21 15 33 9 33 -16z m141 20 c37 -10 49 -29 49 -76 0 -19 -7 -22 -70 -28 -38 -4 -74 -4 -80 -1 -15 9 -12 32 6 39 10 4 13 13 9 26 -8 24 10 50 34 50 9 0 32 -5 52 -10z"/> <path d="M818 1136 c-25 -18 -22 -47 7 -75 l25 -23 8 23 c10 26 1 81 -13 85 -6 2 -18 -3 -27 -10z"/> <path d="M3505 1134 c15 -38 17 -54 6 -54 -17 0 -13 -37 5 -44 8 -3 24 -1 35 4 15 8 17 15 10 29 -6 10 -8 27 -5 38 4 14 0 22 -13 27 -10 3 -24 9 -32 12 -11 5 -12 2 -6 -12z"/> <path d="M382 1123 c2 -14 11 -17 33 -15 35 5 39 7 30 21 -3 6 -20 11 -36 11 -24 0 -30 -4 -27 -17z"/> <path d="M3281 1128 c-12 -4 -21 -12 -21 -18 0 -5 -7 -10 -15 -10 -8 0 -15 -7 -15 -15 0 -8 7 -15 15 -15 8 0 15 7 15 16 0 11 8 14 33 12 40 -4 44 -32 5 -36 -24 -3 -27 -6 -18 -23 9 -15 7 -21 -5 -25 -8 -3 -15 -12 -15 -20 0 -16 26 -19 35 -4 3 5 19 2 38 -9 64 -35 75 -123 16 -135 -21 -4 -29 -11 -29 -26 0 -11 7 -20 15 -20 8 0 15 9 15 20 0 24 25 27 38 4 8 -15 10 -15 15 0 4 9 16 16 28 16 21 0 21 1 6 18 -10 10 -17 32 -17 49 0 17 -7 36 -15 43 -18 15 -11 30 16 30 23 0 26 18 4 26 -8 4 -15 12 -15 20 0 8 7 14 15 14 8 0 15 7 15 15 0 8 -5 15 -11 15 -5 0 -22 13 -37 29 -28 30 -75 43 -111 29z m119 -63 c10 -12 8 -18 -11 -35 -44 -36 -84 -17 -59 29 13 25 52 28 70 6z"/> <path d="M3410 1110 c0 -5 9 -10 20 -10 11 0 20 5 20 10 0 6 -9 10 -20 10 -11 0 -20 -4 -20 -10z"/> <path d="M710 1065 c0 -16 6 -25 15 -25 9 0 15 9 15 25 0 16 -6 25 -15 25 -9 0 -15 -9 -15 -25z"/> <path d="M1197 1064 c-11 -11 -8 -64 3 -64 6 0 13 7 17 16 7 18 -9 58 -20 48z"/> <path d="M1250 1056 c0 -8 4 -17 8 -20 13 -8 35 11 28 23 -10 16 -36 14 -36 -3z"/> <path d="M560 1030 c0 -11 7 -20 15 -20 8 0 15 9 15 20 0 11 -7 20 -15 20 -8 0 -15 -9 -15 -20z"/> <path d="M3183 1043 c-7 -2 -13 -11 -13 -19 0 -8 -16 -22 -35 -30 -36 -15 -46 -38 -20 -48 8 -3 21 1 29 9 20 21 24 19 18 -10 -3 -19 0 -25 14 -25 11 0 25 -9 32 -20 14 -23 32 -26 50 -8 9 9 3 19 -23 44 -38 36 -44 58 -18 72 32 19 2 50 -34 35z"/> <path d="M1217 961 c-6 -23 9 -51 28 -51 7 0 16 -10 18 -22 3 -17 5 -14 6 10 1 31 -23 82 -39 82 -4 0 -10 -8 -13 -19z"/> <path d="M3520 950 c-20 -15 -22 -22 -13 -31 10 -10 14 -8 19 7 4 10 12 22 18 26 6 4 8 9 6 12 -3 2 -16 -4 -30 -14z"/> <path d="M3298 955 c-3 -6 -8 -27 -12 -48 -6 -29 -14 -40 -39 -51 -18 -7 -41 -23 -51 -35 -19 -21 -19 -21 3 -21 12 0 24 7 27 15 11 27 36 18 32 -12 -3 -26 -5 -27 -58 -26 -30 1 -56 2 -58 2 -1 1 2 10 8 21 10 18 7 21 -20 26 -28 6 -30 9 -30 51 0 31 -4 43 -12 41 -17 -6 -23 -67 -9 -81 18 -18 13 -34 -11 -41 -18 -4 -20 -8 -11 -17 9 -9 15 -9 26 0 12 9 16 7 20 -9 4 -15 14 -20 39 -20 18 -1 57 -2 86 -4 28 -2 52 0 52 5 0 4 8 15 17 25 13 13 14 19 5 22 -21 7 -13 32 13 44 25 11 34 43 14 50 -6 2 -14 19 -18 38 -4 19 -9 30 -13 25z"/> <path d="M886 831 c-4 -6 -1 -19 6 -30 9 -15 16 -17 25 -9 18 14 45 2 42 -19 -3 -33 1 -43 15 -43 11 0 14 13 13 53 l-2 52 -47 3 c-25 2 -49 -2 -52 -7z"/> <path d="M3506 814 c-3 -9 -6 -29 -6 -45 0 -28 1 -29 50 -29 38 0 50 4 50 15 0 10 -10 15 -34 15 -44 0 -55 16 -22 31 14 7 23 16 20 20 -9 15 -52 10 -58 -7z"/> <path d="M3328 755 c-21 -20 -38 -41 -38 -48 0 -15 -51 -47 -75 -47 -15 0 -15 2 -4 16 18 22 -3 33 -51 27 -31 -4 -41 -2 -52 16 -16 26 -30 27 -45 1 -11 -16 -10 -21 6 -30 11 -5 31 -10 46 -10 14 0 28 -7 31 -15 4 -8 14 -15 24 -15 29 0 31 -28 4 -55 -14 -14 -29 -23 -33 -20 -5 2 -16 -4 -25 -14 -22 -24 -8 -33 41 -25 35 5 39 3 56 -28 10 -19 20 -55 23 -81 4 -42 2 -47 -16 -47 -11 0 -20 6 -20 14 0 17 -27 29 -35 16 -8 -14 3 -30 21 -30 8 0 14 -10 14 -25 0 -21 -5 -25 -30 -26 -16 -1 -36 -2 -42 -3 -8 -1 -12 10 -10 29 1 17 -3 37 -8 45 -9 13 -12 13 -24 -2 -20 -27 -36 -21 -38 15 -2 53 2 71 17 83 17 12 20 71 6 93 -14 22 -40 -4 -34 -32 5 -18 3 -20 -8 -9 -16 15 -39 16 -39 1 0 -6 -7 -17 -15 -25 -9 -9 -15 -33 -15 -58 0 -36 5 -46 35 -70 19 -16 35 -36 35 -45 0 -10 14 -22 36 -30 19 -7 38 -19 41 -27 3 -8 18 -14 34 -14 28 0 38 -13 19 -25 -20 -13 32 -95 61 -95 10 0 19 -11 22 -28 8 -40 80 -112 112 -112 14 0 25 5 25 10 0 6 -13 10 -29 10 -24 0 -29 5 -35 31 -3 17 -3 35 0 40 3 5 -5 18 -18 29 -20 18 -21 21 -7 32 8 7 18 21 22 31 5 15 10 16 27 7 25 -14 43 -4 37 21 -3 12 7 26 35 45 37 26 40 31 34 64 -3 19 -13 40 -21 47 -9 6 -15 17 -14 25 5 21 -24 58 -44 58 -12 0 -17 6 -15 18 4 17 10 18 41 7 12 -5 17 -2 17 10 0 9 9 19 20 22 22 6 28 33 6 33 -7 0 -19 -7 -26 -15 -15 -18 -57 -20 -63 -2 -3 9 -9 9 -27 -1 -27 -17 -42 -5 -16 13 22 17 12 38 -15 30 -24 -8 -79 3 -79 16 0 5 11 14 24 19 13 5 27 14 31 19 3 6 15 11 26 11 12 0 19 7 19 19 0 27 63 55 106 46 30 -5 34 -3 34 15 0 18 -5 21 -32 18 -28 -2 -34 1 -36 20 -4 29 -10 28 -54 -13z m-62 -219 c8 -8 14 -19 14 -25 0 -5 8 -15 18 -20 16 -10 16 -10 0 -11 -11 0 -18 -8 -18 -19 0 -29 17 -35 32 -11 17 26 24 25 53 -7 32 -36 31 -51 -2 -64 -27 -10 -27 -11 -9 -25 11 -8 28 -14 38 -14 20 0 21 -1 12 -24 -3 -9 -12 -16 -20 -16 -8 0 -14 -9 -14 -21 0 -11 -4 -18 -9 -15 -5 3 -7 15 -4 26 4 14 0 20 -10 20 -8 0 -22 3 -31 6 -13 5 -16 -1 -16 -27 0 -20 -8 -42 -21 -56 -17 -18 -19 -25 -10 -37 9 -11 8 -15 -5 -20 -10 -4 -20 -3 -23 1 -3 4 -15 13 -26 19 -15 8 -20 22 -20 50 0 36 2 39 28 37 21 -1 27 3 27 18 0 13 7 19 23 19 12 0 28 10 36 22 12 19 11 23 -8 37 -12 10 -23 33 -27 61 -4 24 -16 59 -27 77 -20 34 -8 46 19 19z m-254 -40 c-2 -15 1 -33 7 -40 6 -7 6 -17 1 -26 -13 -20 -16 -13 -24 48 -5 42 -4 53 6 49 7 -2 12 -16 10 -31z"/> <path d="M2791 741 c-21 -13 -3 -31 31 -31 23 0 29 4 24 16 -3 9 -6 18 -6 20 0 7 -35 4 -49 -5z"/> <path d="M2938 743 c-10 -2 -18 -11 -18 -20 0 -12 7 -14 35 -9 27 5 35 4 35 -8 0 -8 7 -22 16 -31 9 -9 14 -19 10 -22 -3 -4 -12 -1 -18 5 -17 17 -45 15 -52 -4 -10 -26 -7 -34 13 -34 10 0 25 -9 32 -20 21 -31 39 -10 42 47 2 41 -2 54 -23 76 -24 26 -37 29 -72 20z"/> <path d="M2835 690 c-3 -5 -23 -10 -44 -10 -35 0 -39 -3 -45 -31 -9 -49 -8 -57 14 -64 11 -3 20 -13 20 -21 0 -19 31 -15 38 4 2 7 -5 16 -17 19 -23 6 -28 35 -8 50 12 10 78 25 110 24 23 0 22 16 -2 29 -25 13 -58 13 -66 0z"/> <path d="M1045 681 c-7 -12 12 -24 25 -16 11 7 4 25 -10 25 -5 0 -11 -4 -15 -9z"/> <path d="M3388 673 c-10 -2 -18 -14 -18 -26 0 -16 -3 -18 -12 -9 -16 16 -38 15 -38 -2 0 -7 7 -19 15 -26 8 -7 15 -21 15 -31 0 -30 18 -22 25 11 7 34 16 37 35 15 7 -9 18 -14 24 -12 11 4 16 77 4 77 -3 0 -12 2 -20 4 -7 2 -21 2 -30 -1z"/> <path d="M3082 638 c-15 -15 3 -38 29 -38 21 0 25 20 7 38 -15 15 -21 15 -36 0z"/> <path d="M3500 625 c0 -23 24 -45 49 -45 6 0 11 16 11 35 0 32 -2 35 -30 35 -25 0 -30 -4 -30 -25z"/> <path d="M2908 593 c-16 -2 -28 -8 -28 -13 0 -5 -12 -15 -27 -22 -14 -7 -34 -27 -42 -45 -11 -23 -21 -31 -33 -27 -14 4 -16 -1 -11 -33 3 -21 12 -43 19 -49 18 -15 18 -30 -1 -38 -8 -3 -15 -12 -15 -20 0 -7 -7 -16 -15 -20 -20 -7 -19 -55 0 -62 9 -4 20 -16 26 -27 9 -16 8 -23 -9 -36 -10 -9 -22 -30 -25 -48 -6 -30 -4 -33 28 -39 20 -3 35 -12 35 -20 0 -21 8 -18 60 26 26 22 53 40 60 40 8 0 9 6 5 18 -5 9 -10 32 -13 50 -4 27 -1 34 17 39 22 6 29 22 27 68 -2 51 -36 80 -36 31 0 -14 -7 -32 -16 -40 -9 -9 -13 -24 -9 -35 4 -14 0 -21 -15 -26 -24 -8 -26 -24 -5 -51 8 -10 15 -27 15 -38 0 -14 -5 -17 -25 -12 -18 5 -27 1 -35 -14 -8 -16 -17 -19 -33 -14 -31 9 -32 12 -15 31 22 26 20 82 -3 112 l-20 26 20 16 c12 10 21 25 21 34 0 27 25 11 28 -19 2 -19 8 -26 20 -24 29 6 24 36 -11 72 -20 19 -38 43 -41 54 -9 27 39 65 84 67 31 1 35 4 32 27 -2 22 2 27 28 33 16 4 30 10 30 15 0 8 -27 21 -38 19 -4 -1 -19 -4 -34 -6z"/> <path d="M673 566 c-27 -13 -40 -65 -24 -94 6 -11 8 -27 5 -35 -3 -10 2 -18 15 -22 12 -3 21 -13 21 -21 0 -8 9 -14 19 -14 23 0 40 22 23 28 -18 6 -14 20 8 27 24 8 26 24 4 40 -11 8 -14 19 -9 34 8 27 28 23 35 -8 6 -27 24 -29 28 -3 2 11 -12 30 -37 50 -42 34 -53 36 -88 18z"/> <path d="M3506 510 c-4 -25 -6 -70 -4 -100 2 -46 6 -55 22 -55 10 0 24 8 30 18 9 14 7 21 -6 31 -22 16 -23 30 -3 46 14 12 14 15 0 30 -9 10 -20 31 -24 46 -8 28 -9 27 -15 -16z"/> <path d="M957 523 c-14 -13 -6 -33 13 -33 13 0 20 7 20 20 0 19 -20 27 -33 13z"/> <path d="M532 453 c4 -21 36 -28 58 -13 13 9 13 11 0 20 -26 17 -62 12 -58 -7z"/> <path d="M2876 461 c-4 -6 -4 -22 0 -36 4 -18 13 -25 31 -25 21 0 24 4 21 33 -2 24 -8 33 -25 35 -11 2 -24 -1 -27 -7z"/> <path d="M1053 413 c-22 -8 -14 -21 16 -28 32 -7 75 10 66 26 -6 9 -61 11 -82 2z"/> <path d="M480 400 c0 -6 11 -15 24 -22 14 -6 26 -20 28 -32 2 -17 10 -21 38 -21 19 -1 45 -4 58 -9 18 -6 22 -4 22 13 0 12 -6 21 -14 21 -7 0 -19 7 -26 15 -7 8 -23 15 -36 15 -15 0 -24 6 -24 15 0 10 -11 15 -35 15 -19 0 -35 -5 -35 -10z"/> <path d="M1370 395 c0 -8 5 -15 10 -15 6 0 10 7 10 15 0 8 -4 15 -10 15 -5 0 -10 -7 -10 -15z"/> <path d="M890 380 c0 -11 7 -23 16 -27 12 -4 14 -14 9 -43 -6 -33 -3 -39 14 -45 17 -5 21 -16 23 -78 l3 -72 38 -3 c32 -3 37 -7 37 -28 0 -34 29 -44 48 -16 16 25 39 28 77 10 20 -9 28 -9 38 1 16 16 -7 31 -50 31 -40 0 -45 26 -9 39 29 12 70 50 79 75 5 13 13 17 31 12 12 -3 26 -3 29 0 11 11 -13 44 -32 44 -22 0 -61 -40 -61 -64 0 -9 -4 -15 -9 -12 -5 3 -9 21 -9 40 0 26 5 35 20 40 16 4 19 10 14 28 -3 13 -6 33 -6 46 0 32 -17 27 -25 -8 -4 -17 -15 -35 -26 -40 -12 -7 -20 -22 -20 -43 -2 -30 -2 -30 -6 -4 -5 34 -30 35 -39 2 -3 -14 -11 -29 -18 -33 -6 -4 -16 -16 -22 -27 -9 -16 -7 -23 9 -36 22 -17 16 -39 -12 -39 -28 0 -56 50 -53 93 3 40 17 47 38 20 17 -24 32 -7 16 18 -14 22 -8 39 14 39 19 0 18 16 -1 24 -8 3 -15 17 -15 31 0 14 -4 25 -10 25 -5 0 -10 -8 -10 -17 0 -26 -40 -87 -50 -77 -4 5 -11 19 -15 32 -5 19 -2 25 14 29 12 3 21 13 21 24 0 22 -4 23 -30 9 -13 -7 -21 -6 -30 5 -17 21 -30 19 -30 -5z m246 -185 c9 -21 -14 -45 -42 -45 -16 0 -24 6 -24 18 0 37 54 59 66 27z"/> <path d="M2635 380 c-8 -14 3 -30 21 -30 8 0 23 -5 34 -12 19 -12 43 -3 24 10 -6 4 -13 15 -17 25 -7 18 -52 24 -62 7z"/> <path d="M2517 373 c-4 -3 -7 -14 -7 -24 0 -18 -19 -29 -50 -29 -22 0 -50 -26 -50 -46 0 -21 26 -17 42 8 13 19 18 20 46 10 40 -14 61 -7 73 26 8 22 6 29 -13 44 -25 19 -32 21 -41 11z"/> <path d="M685 350 c-9 -15 -1 -23 21 -18 15 3 16 4 1 16 -11 9 -17 10 -22 2z"/> <path d="M1257 354 c-14 -14 -6 -44 14 -55 35 -18 46 5 17 35 -13 15 -27 23 -31 20z"/> <path d="M2816 294 c-9 -23 -8 -24 19 -24 23 0 24 2 15 20 -13 24 -26 26 -34 4z"/> <path d="M2595 286 c-16 -12 -18 -17 -7 -27 6 -7 12 -27 12 -43 0 -46 11 -76 26 -76 24 0 18 -58 -7 -65 -20 -7 -20 -8 11 -36 34 -31 38 -33 59 -20 10 6 10 13 2 29 -8 15 -7 23 4 32 21 17 19 30 -4 30 -28 0 -78 67 -65 87 12 19 54 37 54 23 0 -6 -4 -10 -10 -10 -16 0 -12 -30 5 -36 8 -4 15 -12 15 -20 0 -8 6 -14 13 -14 10 0 14 19 15 70 2 68 -8 87 -26 54 -11 -20 -57 -9 -68 17 -8 18 -11 18 -29 5z"/> <path d="M680 275 c0 -8 7 -15 15 -15 8 0 15 7 15 15 0 8 -7 15 -15 15 -8 0 -15 -7 -15 -15z"/> <path d="M1325 226 c5 -49 3 -70 -9 -94 -18 -35 -46 -34 -46 1 0 11 -7 28 -16 38 -13 14 -20 16 -40 7 -27 -13 -30 -23 -10 -35 18 -11 46 -67 46 -93 0 -25 5 -25 37 0 29 23 49 26 56 8 2 -8 8 -9 13 -4 5 5 4 11 -3 13 -18 6 -16 40 2 47 8 3 15 18 15 32 0 15 7 35 16 45 20 23 12 49 -16 49 -13 0 -24 10 -30 25 -16 43 -22 28 -15 -39z"/> <path d="M3506 282 c-3 -5 -5 -32 -4 -60 0 -48 2 -52 24 -52 14 0 24 6 24 14 0 7 2 26 5 42 4 23 0 33 -19 47 -14 9 -27 13 -30 9z"/> <path d="M297 253 c-4 -3 -7 -19 -7 -34 0 -15 -7 -34 -15 -43 -22 -22 -19 -43 3 -23 10 10 24 17 30 17 8 0 12 17 12 45 0 42 -7 54 -23 38z"/> <path d="M2470 240 c-11 -11 -20 -27 -20 -35 0 -8 -4 -15 -10 -15 -5 0 -10 -7 -10 -15 0 -20 -39 -19 -47 1 -3 9 -1 26 6 37 12 18 11 19 -6 12 -10 -4 -26 -10 -35 -12 -20 -6 -25 -33 -6 -33 13 0 58 -47 58 -60 0 -4 18 -7 40 -6 43 1 47 6 28 36 -10 16 -8 25 20 59 25 31 28 40 16 45 -8 3 -23 -3 -34 -14z"/> <path d="M2966 238 c-3 -13 -6 -35 -6 -50 0 -26 2 -27 25 -16 16 7 24 17 20 26 -3 7 -8 25 -11 38 -8 30 -20 31 -28 2z"/> <path d="M652 208 c2 -13 8 -23 13 -23 6 0 11 10 13 23 2 15 -2 22 -13 22 -11 0 -15 -7 -13 -22z"/> <path d="M3050 200 c0 -16 3 -30 8 -30 4 0 17 -3 28 -6 16 -4 23 0 27 16 9 34 -2 50 -34 50 -26 0 -29 -4 -29 -30z"/> <path d="M3420 210 c0 -5 7 -10 15 -10 8 0 15 5 15 10 0 6 -7 10 -15 10 -8 0 -15 -4 -15 -10z"/> <path d="M1490 197 c0 -8 7 -18 16 -21 11 -4 14 -1 12 11 -4 21 -28 30 -28 10z"/> <path d="M2083 189 c-18 -12 -33 -27 -33 -34 0 -12 -57 -45 -79 -45 -19 0 -12 -22 9 -27 11 -3 20 -11 20 -18 0 -6 9 -20 21 -31 17 -15 23 -16 40 -6 11 7 19 8 19 2 0 -13 37 -13 45 0 3 6 15 10 25 10 12 0 20 8 22 23 4 31 48 38 48 7 0 -13 -8 -24 -20 -27 -20 -5 -28 -23 -11 -23 5 0 16 -3 25 -6 10 -4 20 4 30 24 13 25 13 31 2 35 -8 3 -20 18 -28 34 -12 25 -19 28 -71 31 -49 3 -58 6 -55 20 3 13 15 17 57 17 32 0 56 5 58 12 6 17 -16 26 -32 13 -9 -7 -15 -8 -20 0 -10 16 -37 12 -72 -11z m7 -58 c0 -6 15 -11 33 -13 24 -2 32 -8 32 -23 0 -17 -8 -21 -58 -25 -48 -4 -58 -2 -63 12 -7 22 16 58 38 58 10 0 18 -4 18 -9z"/> <path d="M2239 179 l-22 -32 22 -18 c13 -11 32 -19 42 -19 24 0 26 -37 2 -43 -10 -3 3 -5 29 -6 57 -1 78 -9 78 -27 0 -8 9 -14 20 -14 11 0 20 5 20 10 0 6 8 10 19 10 10 0 24 7 31 15 7 8 23 15 36 15 24 0 88 53 77 64 -18 18 -70 4 -106 -29 -41 -38 -80 -45 -96 -18 -9 17 -11 16 -30 -1 -20 -18 -21 -18 -31 8 -5 15 -10 36 -10 47 0 26 -29 69 -45 69 -8 0 -24 -14 -36 -31z"/> <path d="M1430 173 c0 -17 -11 -36 -32 -55 -37 -33 -31 -45 17 -31 25 8 35 8 39 -1 3 -7 8 -6 15 4 6 9 7 18 1 24 -6 6 -10 27 -10 48 0 27 -4 38 -15 38 -10 0 -15 -10 -15 -27z"/> <path d="M2540 190 c0 -5 7 -10 15 -10 8 0 15 5 15 10 0 6 -7 10 -15 10 -8 0 -15 -4 -15 -10z"/> <path d="M799 174 c-8 -10 -13 -25 -11 -36 2 -13 -3 -18 -22 -18 -32 0 -33 -12 -4 -50 24 -32 58 -39 77 -16 10 12 7 15 -16 18 -37 4 -43 35 -10 47 32 13 40 35 18 55 -17 15 -19 15 -32 0z"/> <path d="M3373 176 c-7 -8 -18 -16 -25 -19 -20 -7 4 -41 33 -45 13 -2 30 -11 37 -20 9 -11 15 -13 23 -5 14 14 -7 50 -33 56 -19 5 -25 27 -8 27 6 0 10 5 10 10 0 14 -23 12 -37 -4z"/> <path d="M1530 156 c0 -7 -10 -17 -22 -21 -15 -4 -18 -8 -10 -12 7 -3 19 1 27 7 12 10 16 8 24 -11 11 -31 -4 -59 -31 -56 -11 1 -23 -3 -25 -10 -3 -8 9 -11 38 -10 31 1 43 6 47 19 2 10 9 18 14 18 5 0 14 13 19 29 7 19 20 32 37 36 l27 7 -24 9 c-16 6 -28 6 -35 -1 -13 -13 -56 -13 -56 0 0 6 -7 10 -15 10 -8 0 -15 -6 -15 -14z"/> <path d="M415 133 c-3 -9 8 -13 40 -13 32 0 45 4 45 14 0 18 -78 17 -85 -1z"/> <path d="M3080 135 c-14 -17 -5 -48 13 -43 14 5 23 58 9 58 -5 0 -15 -7 -22 -15z"/> <path d="M865 130 c-8 -13 3 -30 20 -30 7 0 27 -13 45 -30 35 -33 60 -39 60 -15 0 8 -9 15 -20 15 -11 0 -20 6 -20 13 0 17 -44 57 -63 57 -9 0 -19 -4 -22 -10z"/> <path d="M1688 116 c-10 -7 -18 -25 -18 -40 0 -24 3 -26 45 -26 33 0 45 -4 45 -15 0 -8 9 -15 19 -15 11 0 23 -4 26 -10 9 -14 48 -13 63 2 24 24 14 41 -19 34 -20 -4 -43 1 -69 14 -22 11 -46 20 -55 20 -18 0 -20 21 -3 38 17 17 -11 16 -34 -2z"/> <path d="M3147 114 c-21 -22 8 -79 35 -69 14 6 34 52 26 60 -8 9 -55 15 -61 9z"/> <path d="M3506 112 c-13 -12 -4 -21 37 -41 52 -25 57 -26 57 -6 0 8 -6 15 -14 15 -7 0 -19 6 -25 14 -13 16 -47 27 -55 18z"/> <path d="M2936 95 c-3 -8 -15 -15 -26 -15 -11 0 -20 -5 -20 -10 0 -6 -15 -19 -32 -30 l-33 -21 65 3 65 3 -3 33 c-3 24 0 32 12 32 9 0 16 5 16 10 0 16 -37 12 -44 -5z"/> <path d="M3000 60 c0 -21 27 -40 59 -40 26 0 27 14 1 40 -26 26 -60 26 -60 0z"/> <path d="M1920 61 c0 -18 31 -40 47 -34 14 6 14 8 -5 16 -12 6 -22 14 -22 19 0 4 -4 8 -10 8 -5 0 -10 -4 -10 -9z"/> <path d="M2730 55 c0 -8 5 -15 10 -15 6 0 10 7 10 15 0 8 -4 15 -10 15 -5 0 -10 -7 -10 -15z"/> <path d="M2772 50 c-11 -18 -10 -20 8 -20 13 0 20 7 20 20 0 11 -3 20 -8 20 -4 0 -13 -9 -20 -20z"/> <path d="M1157 45 c-20 -14 -12 -25 17 -25 37 0 49 15 23 27 -17 8 -27 7 -40 -2z"/> <path d="M3437 24 c-17 -18 -3 -24 58 -24 37 0 65 4 65 10 0 5 -15 10 -32 9 -18 0 -44 2 -58 6 -14 3 -29 3 -33 -1z"/> </g> </svg>